<svg xmlns="http://www.w3.org/2000/svg" width="2719" height="617" viewBox="0 0 2719 617" fill="none"><path d="M1417.07 23.8672C1410.67 36.9338 1401.87 55.6005 1397.33 65.4672C1392.93 75.3338 1389.2 83.6005 1388.93 83.7338C1388.8 83.8672 1368.27 86.5338 1343.33 89.6005C1318.4 92.5338 1297.47 95.2005 1296.8 95.3338C1296.27 95.6005 1304.93 104.134 1316.13 114.534C1327.47 124.934 1342.8 139.334 1350.4 146.534L1364.13 159.601L1356.13 202.267C1351.73 225.734 1347.73 246.267 1347.33 247.867C1346.53 251.334 1342.27 253.467 1396.53 223.334C1423.87 208.267 1428.8 205.867 1431.2 207.201C1432.8 208.001 1450.93 217.867 1471.73 229.334C1492.4 240.667 1509.73 249.734 1510 249.334C1510.4 248.934 1506.67 229.334 1501.87 205.734C1497.07 182.001 1493.33 161.601 1493.6 160.401C1494 158.267 1509.47 143.201 1545.6 109.867C1554.13 102.001 1560.93 95.4672 1560.8 95.3338C1560.67 95.0672 1539.87 92.5338 1514.53 89.4672C1489.33 86.4005 1468.53 83.8672 1468.53 83.7338C1468.27 83.4672 1432.93 9.60051 1430.53 4.53384L1428.53 0.000507806L1417.07 23.8672Z" fill="#FF4D39"></path><path d="M1710.8 14.4007C1706.8 22.4007 1698 41.2007 1691.07 56.2674C1684.13 71.2007 1678.4 83.6007 1678.27 83.7341C1678.13 83.8674 1657.6 86.5341 1632.67 89.6007C1607.73 92.5341 1586.8 95.2007 1586.27 95.3341C1585.6 95.6007 1594.53 104.534 1606.27 115.201C1617.87 126.001 1633.2 140.401 1640.4 147.201L1653.47 159.601L1644.93 204.934C1640.13 229.867 1636.4 250.401 1636.53 250.401C1636.67 250.534 1651.87 242.267 1677.33 228.134C1687.2 222.534 1700.53 215.201 1706.8 211.867L1718.13 205.601L1747.47 221.734C1793.33 247.067 1798.8 250.001 1799.33 249.334C1799.73 249.067 1796 229.601 1791.33 206.134C1786.53 182.801 1782.8 162.401 1782.93 160.801C1783.33 158.267 1813.6 128.667 1840.13 104.934C1845.87 99.8674 1850.4 95.4674 1850.13 95.3341C1850 95.2007 1829.2 92.5341 1803.87 89.4674C1778.67 86.4007 1757.87 83.8674 1757.87 83.7341C1757.47 83.4674 1722 9.33407 1719.87 4.40074L1717.87 0.000735638L1710.8 14.4007Z" fill="#FF4D39"></path><path d="M2001.47 14.4009C1997.47 22.4009 1988.67 41.2009 1981.73 56.2676C1974.8 71.2009 1969.07 83.6009 1968.93 83.7342C1968.8 83.8676 1948.27 86.5342 1923.33 89.6009C1898.4 92.5342 1877.47 95.2009 1876.93 95.3342C1876.27 95.6009 1885.2 104.534 1896.93 115.201C1908.53 126.001 1923.87 140.401 1931.07 147.201L1944.13 159.601L1936.13 202.268C1931.73 225.734 1927.73 246.268 1927.33 247.868C1926.53 251.334 1921.6 253.734 1976.53 223.334L2008.53 205.601L2021.87 212.934C2029.33 216.801 2047.6 226.934 2062.67 235.334C2077.73 243.734 2090.13 250.401 2090.4 250.268C2090.67 250.001 2086.8 230.268 2082 206.401C2077.07 182.534 2073.33 161.868 2073.6 160.401C2074 158.134 2102.8 130.001 2130 105.601C2136.13 100.134 2141.07 95.4676 2140.8 95.3342C2140.67 95.2009 2119.87 92.5342 2094.53 89.4676C2069.33 86.4009 2048.53 83.8676 2048.53 83.7342C2048.13 83.4676 2012.93 9.86755 2010.53 4.40088L2008.53 0.00088213L2001.47 14.4009Z" fill="#FF4D39"></path><path d="M2290.67 14.2672C2286.8 22.2672 2278 41.2006 2271.07 56.2672C2264.13 71.2006 2258.4 83.6006 2258.27 83.7339C2258.13 83.8672 2237.6 86.5339 2212.67 89.6006C2187.73 92.5339 2166.8 95.2006 2166.27 95.3339C2165.6 95.6006 2174.93 104.801 2186.93 115.867C2198.8 126.934 2214.27 141.334 2221.07 147.867L2233.47 159.601L2224.93 204.534C2220.27 229.334 2216.67 249.601 2216.93 249.601C2218.13 249.601 2235.6 240.267 2253.33 230.267C2264 224.267 2278.4 216.267 2285.47 212.534L2298.13 205.734L2320.13 217.734C2370.93 245.734 2378.8 249.867 2379.2 249.467C2379.47 249.201 2375.87 230.001 2371.2 206.934C2366.53 183.867 2362.67 163.467 2362.67 161.601C2362.67 158.934 2368.13 153.201 2387.6 134.934C2401.33 122.134 2416.53 108.001 2421.47 103.601C2426.4 99.2006 2430.27 95.4672 2430.13 95.3339C2430 95.2006 2409.2 92.5339 2384 89.4672C2358.67 86.4006 2337.87 83.7339 2337.6 83.6006C2337.07 83.2006 2301.2 7.73391 2299.07 2.93391C2297.87 -0.13276 2297.2 0.533906 2290.67 14.2672Z" fill="#FF4D39"></path><path d="M2582.93 7.73429C2580.8 12.1343 2572 30.9343 2563.33 49.601C2554.8 68.2676 2547.6 83.7343 2547.6 83.7343C2547.47 83.8676 2526.93 86.5343 2502 89.4676C2477.07 92.5343 2456.13 95.201 2455.6 95.3343C2455.07 95.4676 2469.87 110.001 2488.67 127.468C2516.53 153.468 2522.8 159.868 2522.13 162.134C2521.87 163.734 2518.13 183.201 2514 205.601C2509.87 228.001 2506.27 247.334 2505.87 248.534C2505.2 250.801 2515.2 245.734 2546.67 228.001C2555.07 223.201 2567.73 216.268 2574.8 212.534L2587.47 205.734L2621.47 224.401C2658.53 244.934 2668.13 250.001 2668.53 249.334C2668.8 249.068 2665.2 230.268 2660.53 207.601C2655.87 184.801 2652.13 164.401 2652.13 162.268C2652 158.668 2655.87 154.668 2685.47 126.934L2718.93 95.601L2714.53 94.6676C2712 94.1343 2691.33 91.4676 2668.4 88.801L2626.93 83.8676L2614.27 57.7343C2607.33 43.3343 2598.4 24.6676 2594.53 16.2676C2590.8 7.86763 2587.47 0.667626 2587.2 0.400959C2587.07 0.267626 2585.07 3.46763 2582.93 7.73429Z" fill="#FF4D39"></path><path d="M968.665 30.134C953.865 33.8673 939.999 44.534 933.465 57.4673C923.599 76.8006 923.599 113.201 933.599 132.667C937.465 140.401 947.599 150.667 954.932 154.401C976.132 165.201 1006 163.467 1023.07 150.401C1036.93 139.867 1044 123.601 1044.93 99.8673C1046 75.2006 1041.07 57.8673 1029.47 45.334C1016.4 31.0673 990.799 24.6673 968.665 30.134ZM1002.53 43.8673C1022.67 50.2673 1033.6 75.4673 1029.6 106.401C1025.87 134.534 1011.73 148.267 986.132 148.267C974.265 148.267 968.532 146.667 960.532 141.201C947.065 132.134 941.999 119.067 942.132 93.6006C942.265 70.6673 946.532 58.934 958.265 50.0006C968.799 42.0006 988.399 39.2006 1002.53 43.8673Z" fill="#344B5C"></path><path d="M0 94.9342V160.268H7.33333H14.6667V132.268V104.268H29.0667H43.3333L48.5333 114.001C51.3333 119.201 58.5333 131.868 64.2667 141.868L74.9333 160.268H83.6H92.2667L90.4 157.201C85.7333 150.134 57.3333 101.868 57.3333 101.068C57.3333 100.668 60.2667 98.8009 63.8667 97.0676C72 92.9342 79.2 84.6676 81.3333 76.8009C83.8667 67.7342 82.4 53.7342 78.1333 46.4009C70.6667 33.6009 57.7333 29.7342 23.0667 29.6009H0V94.9342ZM57.0667 46.6676C69.6 53.3342 71.7333 73.8676 61.0667 85.3342C56.5333 90.0009 46.6667 92.2676 29.7333 92.2676H14.6667V67.4676V42.6676L33.0667 43.2009C48.9333 43.6009 52.1333 44.1342 57.0667 46.6676Z" fill="#344B5C"></path><path d="M113.332 94.9342V160.268H149.332H185.332V153.601V146.934H156.665H127.999V122.934V98.9342L155.065 98.6676L181.999 98.2676L182.399 91.8676L182.799 85.6009H155.465H127.999V64.2676V42.9342H156.665H185.332V36.2676V29.6009H149.332H113.332V94.9342Z" fill="#344B5C"></path><path d="M209.868 63.2009C216.668 81.7342 227.202 111.201 233.335 128.534L244.402 160.268H251.868H259.335L267.068 138.534C271.335 126.668 281.735 97.8676 290.135 74.5342C298.535 51.2009 305.335 31.4676 305.335 30.8009C305.335 30.0009 302.135 29.6009 297.868 29.8676L290.268 30.2676L273.868 76.9342C264.802 102.534 256.268 127.201 255.068 131.601C253.868 136.001 252.535 140.001 252.135 140.534C251.602 141.068 250.135 137.201 248.802 131.868C246.935 124.668 220.135 47.4676 214.002 31.8676C213.202 30.1342 211.468 29.6009 205.335 29.6009H197.602L209.868 63.2009Z" fill="#344B5C"></path><path d="M325.332 94.9342V160.268H332.665H339.999V94.9342V29.6009H332.665H325.332V94.9342Z" fill="#344B5C"></path><path d="M376 94.9342V160.268H412H448V153.601V146.934H419.333H390.667V122.934V98.9342H418H445.333V92.2676V85.6009H418H390.667V64.2676V42.9342H419.333H448V36.2676V29.6009H412H376V94.9342Z" fill="#344B5C"></path><path d="M464 30.1347C464 30.4014 470.933 57.3347 479.467 89.868C488.133 122.401 495.733 151.468 496.4 154.535L497.733 160.268H505.333H513.067L514.267 155.201C515.067 152.535 520.933 132.535 527.333 110.935C533.733 89.3347 540.267 66.1347 542 59.6014L544.933 47.6014L546.533 53.6014C547.467 56.9347 551.333 70.4014 555.333 83.6014C559.333 96.8014 566.133 119.335 570.4 133.601L578 159.601L585.467 160.001L592.933 160.401L596.667 146.001C600.667 130.401 626.267 35.7347 627.467 31.868C628.133 29.868 627.2 29.6014 620.267 29.6014H612.267L607.6 47.868C593.733 102.401 586.8 130.801 586 135.601C585.067 140.668 584.933 140.401 582 127.601C580.267 120.268 573.867 97.7347 567.6 77.6014C561.333 57.468 555.467 38.4014 554.533 35.2014L552.933 29.468L544.8 29.868L536.8 30.268L525.067 70.268C518.667 92.268 512.133 116.001 510.533 122.935C506.933 138.801 506.8 139.468 506 138.801C505.733 138.401 503.867 130.935 502 122.268C500.133 113.468 494.267 89.2014 488.933 68.268L479.333 30.268L471.733 29.868C467.467 29.6014 464 29.7347 464 30.1347Z" fill="#344B5C"></path><path d="M649.332 94.9342V160.268H685.332H721.332V153.601V146.934H692.665H663.999V122.934V98.9342H691.332H718.665V92.2676V85.6009H691.332H663.999V64.2676V42.9342H692.665H721.332V36.2676V29.6009H685.332H649.332V94.9342Z" fill="#344B5C"></path><path d="M750.668 94.9342V160.268H773.335C808.801 160.268 824.668 155.734 837.601 141.868C849.335 129.468 853.868 116.134 853.868 94.2676C853.868 71.7342 848.135 56.1342 835.735 44.9342C822.268 32.8009 809.735 29.6009 775.068 29.6009H750.668V94.9342ZM810.935 44.8009C828.535 51.3342 838.668 69.0676 838.668 93.6009C838.668 118.668 828.801 135.601 809.868 142.934C803.468 145.468 798.668 146.134 783.735 146.668L765.335 147.201V94.2676V41.3342L785.068 41.8676C798.935 42.4009 806.535 43.2009 810.935 44.8009Z" fill="#344B5C"></path><path d="M1074.67 94.9342V160.268H1081.33H1088L1087.73 105.601C1087.47 71.0676 1087.87 51.0676 1088.67 51.3342C1089.33 51.6009 1094.27 58.6676 1099.6 67.0676C1105.07 75.4676 1120.93 99.8676 1134.8 121.201L1160.27 160.268H1168.8H1177.33V94.9342V29.6009H1170.67H1164V84.5342V139.601L1144.93 110.534C1134.53 94.6676 1118.4 69.8676 1109.07 55.6009L1092.13 29.6009H1083.47H1074.67V94.9342Z" fill="#344B5C"></path><path d="M306.668 450.268V612.268H331.335H356.001V450.268V288.268H331.335H306.668V450.268Z" fill="#1C313A"></path><path d="M974.668 450.268V612.268H999.335H1024V551.868C1024 518.801 1024.67 487.734 1025.33 483.068C1026.8 472.268 1033.2 459.201 1039.6 453.468C1042.27 451.201 1048.53 447.334 1053.33 445.068C1061.47 441.201 1063.07 440.934 1076.93 440.934C1091.33 440.934 1092 441.068 1097.47 444.934C1100.67 447.201 1104.93 451.334 1106.93 454.268C1114.27 464.934 1114.67 469.068 1114.67 543.868V612.268H1140.13H1165.47L1164.93 539.334C1164.53 469.734 1164.27 465.734 1161.6 455.334C1155.73 432.668 1144.67 416.268 1128 404.934C1114 395.468 1103.07 392.001 1083.73 391.201C1064.27 390.401 1052.8 392.801 1036.53 400.934C1030 404.268 1024.53 406.934 1024.4 406.934C1024.13 406.934 1024 380.268 1024 347.601V288.268H999.335H974.668V450.268Z" fill="#1C313A"></path><path d="M146 298.4C92.9332 303.2 52.1332 328.667 25.9999 373.333C0.533227 417.067 -2.53344 479.2 18.3999 526.8C37.3332 569.733 73.0666 600.267 118.267 612.4C131.467 616 165.867 617.333 181.067 614.933C211.733 610.133 243.2 593.867 265.2 571.733L273.733 563.067L265.6 554C261.2 549.067 253.6 541.067 248.8 536.267L240 527.733L234.4 533.2C210.933 555.6 189.733 565.333 161.2 566.533C122.8 568.267 92.3999 553.2 71.8666 521.867C49.3332 487.467 47.8666 435.333 68.6666 398.133C71.4666 393.2 78.1332 384.533 83.5999 378.8C100.533 361.067 116.933 352.533 141.2 348.933C173.467 344 205.067 354.533 230.8 378.667L239.467 386.8L256.667 369.6L274 352.267L266.667 344.8C244.933 322.667 214.267 306.267 184.8 301.067C172.933 298.933 154.4 297.733 146 298.4Z" fill="#1C313A"></path><path d="M650.401 357.868L650.001 394.268L632.401 394.668L614.668 395.068V418.268V441.468L632.401 441.868L650.001 442.268L650.401 527.201L650.668 612.268H675.335H700.001V526.934V441.601H720.668H741.335V418.268V394.934H720.668H700.001V358.268V321.601H675.335H650.668L650.401 357.868Z" fill="#1C313A"></path><path d="M834.666 393.334C814.666 398.134 798.666 406.4 784.533 419.467C769.733 432.934 760.133 448.4 753.733 469.2C750.533 479.867 750.133 482.934 750.133 502.267C750.133 525.467 751.333 532.667 758.799 550.134C769.733 575.867 791.333 597.067 817.733 608C840.933 617.734 874.399 618.934 898.666 611.067C905.599 608.8 915.733 604.4 921.066 601.334C931.199 595.334 947.733 581.867 947.866 579.6C947.999 578.8 940.266 570.534 930.933 561.2L913.866 544.267L906.666 550.4C902.666 553.867 894.933 558.8 889.599 561.334C872.666 569.467 849.599 568.934 831.866 560C807.199 547.6 793.866 517.6 800.133 488C806.133 459.734 831.199 440.267 861.599 440.267C878.799 440.267 891.199 444.667 905.599 455.734C909.733 458.934 913.599 461.6 914.266 461.6C916.133 461.6 948.399 428.667 947.866 427.2C946.799 424.534 928.266 410 919.733 405.2C914.933 402.534 905.333 398.4 898.533 396.134C886.933 392.134 884.533 391.734 865.333 391.467C849.066 391.067 842.533 391.467 834.666 393.334Z" fill="#1C313A"></path><path d="M400.267 468.534C400.801 539.734 400.934 542.668 403.734 552.934C412.667 585.468 433.067 606.401 463.334 614.268C468.134 615.468 477.067 616.268 486.001 616.268C503.601 616.268 516.001 613.334 530.401 605.601L540.001 600.401V606.268V612.268H565.334H590.667V503.601V394.934L565.734 395.201L540.667 395.601L540.001 462.934C539.334 523.468 539.067 530.934 536.934 536.268C529.067 556.001 511.467 566.934 487.734 566.934C470.667 566.801 461.201 561.068 454.401 546.268C451.334 539.601 451.334 539.201 450.667 467.601L450.001 395.601L424.934 395.201L399.867 394.934L400.267 468.534Z" fill="#1C313A"></path><path d="M849.866 468.268C842.4 470.535 832.933 478.002 828.666 484.802C825.333 490.402 824.533 493.068 824.133 501.868C823.733 511.068 824.133 513.202 827.2 519.602C831.066 527.335 835.733 532.002 844.533 536.668C848.8 538.935 852.266 539.602 860.666 539.602C870 539.602 872.266 539.068 878.533 535.602C891.733 528.268 898.133 516.535 897.066 501.068C895.866 481.602 882.4 468.402 862.8 467.468C858 467.202 852.133 467.602 849.866 468.268Z" fill="#ED5145"></path></svg>