<svg xmlns="http://www.w3.org/2000/svg" width="698" height="156" viewBox="0 0 698 156" fill="none"><path d="M397.811 28.002L397.331 33.722H395.011C391.291 33.722 389.331 36.722 389.331 39.602V52.5221H382.73V28.002H389.011L389.171 31.082C390.491 29.002 392.771 28.002 395.611 28.002H397.811Z" fill="#231F20"></path><path d="M351.898 52.5205H345.258V39.5605C345.258 36.8404 345.018 33.4404 341.218 33.4404C337.538 33.4404 336.058 36.0804 336.058 39.2005V52.5605H329.418V28.0004H335.578L335.738 31.1204C337.058 29.0404 339.498 27.4004 343.138 27.4004C349.818 27.4004 351.938 32.1604 351.938 37.1204V52.5205H351.898Z" fill="#231F20"></path><path d="M326.58 46.8002L326.1 52.4002C324.5 52.8402 323.1 52.9602 321.38 52.9602C315.14 52.9602 313.34 50.0802 313.34 44.3602V21.0801H319.98V28.0001H326.58L326.14 33.7201H320.02V43.8402C320.02 46.1602 320.66 47.4002 323.02 47.4002C324.02 47.4002 325.18 47.2802 326.58 46.8002Z" fill="#231F20"></path><path d="M311.181 28.002L310.661 33.722H308.861C305.141 33.722 303.261 36.722 303.261 39.602V52.5221H296.621V28.002H302.901L303.021 31.082C304.341 29.002 306.661 28.002 309.501 28.002H311.181Z" fill="#231F20"></path><path d="M266.774 49.8017C262.294 52.2017 257.774 53.6017 251.854 53.4017C240.854 53.0817 232.934 46.2417 232.934 34.7216C232.934 23.2416 240.934 15.9215 251.854 15.7215C257.414 15.6815 262.374 17.0815 266.214 20.4816L261.534 25.2016C259.134 23.1616 255.614 21.9616 251.414 22.1616C244.534 22.4816 240.414 27.4816 240.294 34.3216C240.214 41.7617 244.774 46.8817 251.894 47.0817C255.254 47.1617 257.654 46.7217 259.734 45.7617V38.1617H252.334L252.854 31.9216H266.774V49.8017Z" fill="#231F20"></path><path d="M379.727 42.6014H361.567C362.087 45.7214 364.567 47.6014 367.607 47.7214C370.567 47.8014 372.247 46.8814 374.447 44.6814L378.767 47.9614C375.687 51.7615 372.007 53.1215 367.807 53.1215C360.407 53.1215 354.887 47.9614 354.887 40.2414C354.887 32.5614 360.407 27.3613 367.527 27.3613C375.407 27.3613 379.727 32.1214 379.727 40.6014V42.6014ZM373.087 37.4814C372.887 34.4014 370.567 32.4414 367.367 32.5614C364.167 32.6814 362.007 34.7614 361.567 37.4814H373.087Z" fill="#231F20"></path><path d="M292.495 36.4804V52.5605H286.655L286.495 50.1605C284.695 52.4005 281.775 53.1605 278.815 53.1605C274.295 53.1605 270.055 50.9205 269.935 45.7605C269.815 37.6004 279.095 37.0404 284.935 37.0404H286.095V36.6804C286.095 34.0004 284.295 32.5204 280.975 32.5204C278.575 32.5204 276.175 33.4804 274.415 35.1204L270.615 31.2804C274.095 28.4804 277.695 27.4004 281.535 27.4004C289.135 27.4004 292.495 30.9204 292.495 36.4804ZM286.135 41.8405H285.215C282.095 41.8405 276.575 42.0005 276.575 45.2805C276.615 49.8805 286.135 48.4405 286.135 42.8405V41.8405Z" fill="#231F20"></path><path d="M231.656 89.6436H238.456V95.2436H238.616C240.856 90.6836 246.136 88.6836 251.816 88.6836C264.536 88.6836 270.856 98.7636 270.856 110.444C270.856 122.124 264.616 131.964 251.976 131.964C247.736 131.964 241.656 130.364 238.616 125.484H238.456V146.844H231.656V89.6436ZM250.856 94.6836C241.736 94.6836 238.216 102.524 238.216 110.284C238.216 118.444 241.896 125.964 251.256 125.964C260.536 125.964 263.656 118.044 263.656 109.964C263.656 102.204 259.656 94.6836 250.856 94.6836Z" fill="#5A3A95"></path><path d="M314.13 117.884C312.29 127.004 305.73 131.964 296.449 131.964C283.249 131.964 277.009 122.844 276.609 110.204C276.609 97.8036 284.769 88.6836 296.049 88.6836C310.69 88.6836 315.17 102.364 314.77 112.364H283.809C283.569 119.564 287.649 125.964 296.689 125.964C302.29 125.964 306.21 123.244 307.41 117.884H314.13ZM307.57 106.364C307.25 99.8837 302.37 94.6836 295.649 94.6836C288.529 94.6836 284.289 100.044 283.809 106.364H307.57Z" fill="#5A3A95"></path><path d="M360.301 117.884C358.461 127.004 351.901 131.964 342.621 131.964C329.421 131.964 323.181 122.844 322.781 110.204C322.781 97.8036 330.941 88.6836 342.221 88.6836C356.861 88.6836 361.341 102.364 360.941 112.364H329.981C329.741 119.564 333.821 125.964 342.861 125.964C348.461 125.964 352.381 123.244 353.581 117.884H360.301ZM353.741 106.364C353.421 99.8837 348.541 94.6836 341.821 94.6836C334.701 94.6836 330.461 100.044 329.981 106.364H353.741Z" fill="#5A3A95"></path><path d="M370.941 89.6481H377.341V98.3681H377.501C380.781 91.7281 385.341 88.4481 392.702 88.6881V95.8881C381.741 95.8881 377.741 102.128 377.741 112.608V131.008H370.941V89.6481Z" fill="#5A3A95"></path><path d="M405.887 82.1268V73.8867H408.927V82.1268H405.887ZM405.887 131.007V89.8868H408.927V131.007H405.887Z" fill="#5A3A95"></path><path d="M422.574 89.8858H425.614V98.6858H425.774C427.854 92.5258 434.094 88.9258 440.494 88.9258C454.974 88.9258 455.134 100.526 455.134 105.566V131.006H452.094V105.006C452.094 100.766 451.614 91.5658 440.414 91.5658C431.214 91.5658 425.614 98.6858 425.614 108.766V131.006H422.574V89.8858Z" fill="#5A3A95"></path><path d="M468.38 117.326C468.86 124.926 474.54 129.326 481.98 129.326C487.34 129.326 495.02 127.726 495.02 120.606C495.02 113.646 487.98 112.606 480.94 111.166C473.82 109.726 466.78 107.886 466.78 99.4858C466.78 91.3258 474.7 88.9258 481.66 88.9258C490.38 88.9258 496.86 92.6858 496.86 102.046H493.82C493.74 94.6058 488.54 91.5658 481.66 91.5658C476.06 91.5658 469.82 93.6458 469.82 99.4858C469.82 106.046 476.86 107.086 483.5 108.526C491.66 110.046 498.06 111.966 498.06 120.606C498.06 129.486 489.18 131.966 481.98 131.966C472.62 131.966 465.58 126.926 465.34 117.326H468.38Z" fill="#5A3A95"></path><path d="M510.09 82.1268V73.8867H513.13V82.1268H510.09ZM510.09 131.007V89.8868H513.13V131.007H510.09Z" fill="#5A3A95"></path><path d="M558.852 89.8858V128.846C558.852 132.046 558.852 147.246 541.092 146.686C532.292 146.686 525.492 143.406 525.012 133.886H528.052C528.692 141.166 534.452 144.046 541.172 144.046C555.572 144.046 555.812 132.286 555.812 129.566V120.126H555.652C552.772 126.206 547.732 129.486 540.772 129.486C528.692 129.486 523.012 120.606 523.012 109.166C523.012 98.2858 529.172 88.9258 540.772 88.9258C547.172 88.9258 553.412 92.2858 555.652 98.4458H555.812V89.8858H558.852ZM526.012 109.166C526.012 118.846 531.052 126.846 540.732 126.846C550.732 126.846 555.692 118.446 555.692 109.166C555.692 99.9658 550.812 91.5658 540.732 91.5658C530.852 91.5658 526.012 100.446 526.012 109.166Z" fill="#5A3A95"></path><path d="M572.817 73.8867V98.6868H572.977C575.057 92.5268 581.297 88.9268 587.697 88.9268C602.177 88.9268 602.338 100.527 602.338 105.567V131.007H599.298V105.007C599.298 100.767 598.818 91.5668 587.617 91.5668C578.417 91.5668 572.817 98.6868 572.817 108.767V131.007H569.777V73.8867H572.817Z" fill="#5A3A95"></path><path d="M629.616 92.5299H620.656V121.25C620.656 127.89 623.776 128.53 629.536 128.37V131.01C623.296 131.41 617.296 130.53 617.616 121.25V92.5299H610.016V89.8899H617.616V77.0898H620.656V89.8899H629.616V92.5299Z" fill="#5A3A95"></path><path d="M639.853 117.326C640.333 124.926 646.013 129.326 653.453 129.326C658.813 129.326 666.493 127.726 666.493 120.606C666.493 113.646 659.453 112.606 652.413 111.166C645.293 109.726 638.253 107.886 638.253 99.4858C638.253 91.3258 646.173 88.9258 653.133 88.9258C661.853 88.9258 668.333 92.6858 668.333 102.046H665.293C665.213 94.6058 660.013 91.5658 653.133 91.5658C647.533 91.5658 641.293 93.6458 641.293 99.4858C641.293 106.046 648.333 107.086 654.973 108.526C663.133 110.046 669.533 111.966 669.533 120.606C669.533 129.486 660.653 131.966 653.453 131.966C644.093 131.966 637.053 126.926 636.812 117.326H639.853Z" fill="#5A3A95"></path><path d="M676.059 119.439H685.259V120.399H681.219V131.08H680.099V120.399H676.059V119.439Z" fill="#231F20"></path><path d="M686.302 119.439H687.942L691.942 129.6L695.942 119.439H697.582V131.04H696.462V120.999H696.422L692.462 131.04H691.422L687.422 120.999H687.382V131.04H686.262V119.439H686.302Z" fill="#231F20"></path><path d="M127.727 93.0388L144.647 84.3987L161.367 93.4388L158.367 74.6787L172.167 61.5586L153.367 58.5986L145.167 41.4785L136.567 58.3986L117.727 60.9186L131.167 74.3587L127.727 93.0388Z" fill="#F0C61C"></path><path d="M69.1641 93.0388L86.1242 84.3987L102.804 93.4388L99.8443 74.6787L113.604 61.5586L94.8042 58.5986L86.6042 41.4785L78.0042 58.3986L59.1641 60.9186L72.6041 74.3587L69.1641 93.0388Z" fill="#F0C61C"></path><path d="M10.6416 93.0388L27.5617 84.3987L44.2818 93.4388L41.2818 74.6787L55.0418 61.5586L36.2817 58.5986L28.0817 41.4785L19.4417 58.3986L0.601562 60.9186L14.0416 74.3587L10.6416 93.0388Z" fill="#F0C61C"></path><path d="M41.9166 34.2399C55.8366 15.8798 79.9168 3.75977 107.277 3.75977C150.357 3.75977 185.277 33.8399 185.277 70.9201C185.277 86.0002 179.517 99.9203 169.757 111.12L185.277 148.921L144.837 129.76C133.677 135.04 120.877 138.08 107.237 138.08C78.9168 138.08 54.1566 125.12 40.4766 105.68" stroke="#5A3A95" stroke-width="6.64" stroke-miterlimit="10" stroke-linecap="round"></path></svg>