<svg xmlns="http://www.w3.org/2000/svg" width="547" height="157" viewBox="0 0 547 157" fill="none"><path d="M117.5 80.8027C117.5 76.7402 117.135 72.834 116.458 69.084H62.5V91.2715H93.3333C91.9792 98.4069 87.9167 104.449 81.8229 108.511V122.938H100.417C111.25 112.938 117.5 98.2507 117.5 80.8027Z" fill="#4285F4"></path><path d="M62.5013 136.792C77.97 136.792 90.9388 131.687 100.418 122.937L81.8242 108.51C76.72 111.948 70.2096 114.031 62.5013 114.031C47.6055 114.031 34.9492 103.979 30.418 90.4375H11.3555V105.229C20.7826 123.927 40.1055 136.792 62.5013 136.792Z" fill="#34A853"></path><path d="M30.4154 90.3848C29.2695 86.9473 28.5924 83.3014 28.5924 79.4993C28.5924 75.6973 29.2695 72.0514 30.4154 68.6139V53.8223H11.3529C7.44661 61.5306 5.20703 70.2285 5.20703 79.4993C5.20703 88.7702 7.44661 97.4681 11.3529 105.176L26.1966 93.6139L30.4154 90.3848Z" fill="#FBBC05"></path><path d="M62.5013 45.0215C70.9388 45.0215 78.4388 47.9382 84.4284 53.5632L100.835 37.1569C90.8867 27.8861 77.9701 22.209 62.5013 22.209C40.1055 22.209 20.7826 35.0736 11.3555 53.8236L30.418 68.6152C34.9492 55.0736 47.6055 45.0215 62.5013 45.0215Z" fill="#EA4335"></path><path d="M293.209 56.6049C293.944 55.1248 296.056 55.1248 296.791 56.6049L302.797 68.6929C303.088 69.279 303.648 69.6856 304.295 69.7814L317.648 71.7581C319.283 72.0001 319.935 74.0081 318.755 75.1649L309.114 84.6124C308.647 85.0705 308.433 85.7283 308.542 86.3736L310.788 99.6833C311.063 101.313 309.355 102.554 307.89 101.789L295.926 95.5397C295.346 95.2366 294.654 95.2366 294.074 95.5397L282.11 101.789C280.645 102.554 278.937 101.313 279.212 99.6833L281.458 86.3736C281.567 85.7283 281.353 85.0705 280.886 84.6124L271.245 75.1649C270.065 74.0081 270.717 72.0001 272.352 71.7581L285.705 69.7814C286.352 69.6856 286.912 69.279 287.203 68.6929L293.209 56.6049Z" fill="#FEA500"></path><path d="M349.209 56.6049C349.944 55.1248 352.056 55.1248 352.791 56.6049L358.797 68.6929C359.088 69.279 359.648 69.6856 360.295 69.7814L373.648 71.7581C375.283 72.0001 375.935 74.0081 374.755 75.1649L365.114 84.6124C364.647 85.0705 364.433 85.7283 364.542 86.3736L366.788 99.6833C367.063 101.313 365.355 102.554 363.89 101.789L351.926 95.5397C351.346 95.2366 350.654 95.2366 350.074 95.5397L338.11 101.789C336.645 102.554 334.937 101.313 335.212 99.6833L337.458 86.3736C337.567 85.7283 337.353 85.0705 336.886 84.6124L327.245 75.1649C326.065 74.0081 326.717 72.0001 328.352 71.7581L341.705 69.7814C342.352 69.6856 342.912 69.279 343.203 68.6929L349.209 56.6049Z" fill="#FEA500"></path><path d="M405.209 56.6049C405.944 55.1248 408.056 55.1248 408.791 56.6049L414.797 68.6929C415.088 69.279 415.648 69.6856 416.295 69.7814L429.648 71.7581C431.283 72.0001 431.935 74.0081 430.755 75.1649L421.114 84.6124C420.647 85.0705 420.433 85.7283 420.542 86.3736L422.788 99.6833C423.063 101.313 421.355 102.554 419.89 101.789L407.926 95.5397C407.346 95.2366 406.654 95.2366 406.074 95.5397L394.11 101.789C392.645 102.554 390.937 101.313 391.212 99.6833L393.458 86.3736C393.567 85.7283 393.353 85.0705 392.886 84.6124L383.245 75.1649C382.065 74.0081 382.717 72.0001 384.352 71.7581L397.705 69.7814C398.352 69.6856 398.912 69.279 399.203 68.6929L405.209 56.6049Z" fill="#FEA500"></path><path d="M461.209 56.6049C461.944 55.1248 464.056 55.1248 464.791 56.6049L470.797 68.6929C471.088 69.279 471.648 69.6856 472.295 69.7814L485.648 71.7581C487.283 72.0001 487.935 74.0081 486.755 75.1649L477.114 84.6124C476.647 85.0705 476.433 85.7283 476.542 86.3736L478.788 99.6833C479.063 101.313 477.355 102.554 475.89 101.789L463.926 95.5397C463.346 95.2366 462.654 95.2366 462.074 95.5397L450.11 101.789C448.645 102.554 446.937 101.313 447.212 99.6833L449.458 86.3736C449.567 85.7283 449.353 85.0705 448.886 84.6124L439.245 75.1649C438.065 74.0081 438.717 72.0001 440.352 71.7581L453.705 69.7814C454.352 69.6856 454.912 69.279 455.203 68.6929L461.209 56.6049Z" fill="#FEA500"></path><path d="M517.209 56.6049C517.944 55.1248 520.056 55.1248 520.791 56.6049L526.797 68.6929C527.088 69.279 527.648 69.6856 528.295 69.7814L541.648 71.7581C543.283 72.0001 543.935 74.0081 542.755 75.1649L533.114 84.6124C532.647 85.0705 532.433 85.7283 532.542 86.3736L534.788 99.6833C535.063 101.313 533.355 102.554 531.89 101.789L519.926 95.5397C519.346 95.2366 518.654 95.2366 518.074 95.5397L506.11 101.789C504.645 102.554 502.937 101.313 503.212 99.6833L505.458 86.3736C505.567 85.7283 505.353 85.0705 504.886 84.6124L495.245 75.1649C494.065 74.0081 494.717 72.0001 496.352 71.7581L509.705 69.7814C510.352 69.6856 510.912 69.279 511.203 68.6929L517.209 56.6049Z" fill="#FEA500"></path><path d="M167.316 101.576C165.428 101.576 163.604 101.224 161.844 100.52C160.084 99.784 158.58 98.76 157.332 97.448C156.084 96.104 155.268 94.504 154.884 92.648L161.46 90.44C161.94 91.976 162.708 93.096 163.764 93.8C164.82 94.504 166.004 94.856 167.316 94.856C168.436 94.856 169.412 94.632 170.244 94.184C171.076 93.704 171.716 93.048 172.164 92.216C172.644 91.352 172.884 90.36 172.884 89.24C172.884 88.12 172.644 87.144 172.164 86.312C171.716 85.48 171.076 84.84 170.244 84.392C169.412 83.912 168.436 83.672 167.316 83.672C166.164 83.672 165.14 83.928 164.244 84.44C163.348 84.92 162.692 85.672 162.276 86.696L156.18 85.256L159.06 65.24H179.028V71.48H162.084L164.868 68.12L162.9 83L160.884 81.224C161.684 79.912 162.692 78.952 163.908 78.344C165.156 77.736 166.756 77.432 168.708 77.432C171.108 77.432 173.172 77.944 174.9 78.968C176.628 79.96 177.956 81.336 178.884 83.096C179.844 84.856 180.324 86.904 180.324 89.24C180.324 91.576 179.748 93.688 178.596 95.576C177.476 97.432 175.94 98.904 173.988 99.992C172.036 101.048 169.812 101.576 167.316 101.576ZM188.833 101V93.8H196.033V101H188.833ZM219.034 101.576C216.186 101.576 213.674 100.808 211.498 99.272C209.354 97.736 207.674 95.576 206.458 92.792C205.242 90.008 204.634 86.776 204.634 83.096C204.634 79.384 205.226 76.152 206.41 73.4C207.626 70.648 209.306 68.504 211.45 66.968C213.626 65.432 216.138 64.664 218.986 64.664C221.898 64.664 224.426 65.432 226.57 66.968C228.746 68.504 230.426 70.664 231.61 73.448C232.826 76.2 233.434 79.416 233.434 83.096C233.434 86.776 232.826 90.008 231.61 92.792C230.426 95.544 228.746 97.704 226.57 99.272C224.426 100.808 221.914 101.576 219.034 101.576ZM219.082 94.856C220.554 94.856 221.802 94.392 222.826 93.464C223.85 92.536 224.634 91.192 225.178 89.432C225.722 87.672 225.994 85.56 225.994 83.096C225.994 80.632 225.722 78.536 225.178 76.808C224.634 75.048 223.834 73.704 222.778 72.776C221.754 71.848 220.49 71.384 218.986 71.384C217.514 71.384 216.266 71.848 215.242 72.776C214.218 73.704 213.434 75.048 212.89 76.808C212.346 78.536 212.074 80.632 212.074 83.096C212.074 85.528 212.346 87.624 212.89 89.384C213.434 91.144 214.218 92.504 215.242 93.464C216.298 94.392 217.578 94.856 219.082 94.856Z" fill="#FEA500"></path><path d="M166.928 29.384C165.221 29.384 163.643 29.0747 162.192 28.456C160.741 27.8373 159.472 26.9733 158.384 25.864C157.296 24.7547 156.443 23.4533 155.824 21.96C155.227 20.4667 154.928 18.8347 154.928 17.064C154.928 15.2933 155.216 13.6613 155.792 12.168C156.389 10.6533 157.221 9.352 158.288 8.264C159.376 7.15467 160.645 6.30133 162.096 5.704C163.547 5.08533 165.125 4.776 166.832 4.776C168.539 4.776 170.064 5.064 171.408 5.64C172.773 6.216 173.925 6.984 174.864 7.944C175.803 8.88267 176.475 9.91733 176.88 11.048L173.008 12.904C172.56 11.6667 171.803 10.664 170.736 9.896C169.669 9.128 168.368 8.744 166.832 8.744C165.339 8.744 164.016 9.096 162.864 9.8C161.733 10.504 160.848 11.4747 160.208 12.712C159.589 13.9493 159.28 15.4 159.28 17.064C159.28 18.728 159.6 20.1893 160.24 21.448C160.901 22.6853 161.808 23.656 162.96 24.36C164.112 25.064 165.435 25.416 166.928 25.416C168.144 25.416 169.264 25.1813 170.288 24.712C171.312 24.2213 172.133 23.5387 172.752 22.664C173.371 21.768 173.68 20.712 173.68 19.496V17.672L175.664 19.4H166.832V15.72H178.032V18.12C178.032 19.9547 177.723 21.576 177.104 22.984C176.485 24.392 175.643 25.576 174.576 26.536C173.531 27.4747 172.347 28.1893 171.024 28.68C169.701 29.1493 168.336 29.384 166.928 29.384ZM189.636 29.384C187.929 29.384 186.372 28.9893 184.964 28.2C183.577 27.4107 182.468 26.3333 181.636 24.968C180.825 23.6027 180.42 22.0453 180.42 20.296C180.42 18.5467 180.825 16.9893 181.636 15.624C182.468 14.2587 183.577 13.1813 184.964 12.392C186.351 11.6027 187.908 11.208 189.636 11.208C191.343 11.208 192.889 11.6027 194.276 12.392C195.663 13.1813 196.761 14.2587 197.572 15.624C198.404 16.968 198.82 18.5253 198.82 20.296C198.82 22.0453 198.404 23.6027 197.572 24.968C196.74 26.3333 195.631 27.4107 194.244 28.2C192.857 28.9893 191.321 29.384 189.636 29.384ZM189.636 25.544C190.575 25.544 191.396 25.32 192.1 24.872C192.825 24.424 193.391 23.8053 193.796 23.016C194.223 22.2053 194.436 21.2987 194.436 20.296C194.436 19.272 194.223 18.376 193.796 17.608C193.391 16.8187 192.825 16.2 192.1 15.752C191.396 15.2827 190.575 15.048 189.636 15.048C188.676 15.048 187.833 15.2827 187.108 15.752C186.383 16.2 185.807 16.8187 185.38 17.608C184.975 18.376 184.772 19.272 184.772 20.296C184.772 21.2987 184.975 22.2053 185.38 23.016C185.807 23.8053 186.383 24.424 187.108 24.872C187.833 25.32 188.676 25.544 189.636 25.544ZM210.511 29.384C208.804 29.384 207.247 28.9893 205.839 28.2C204.452 27.4107 203.343 26.3333 202.511 24.968C201.7 23.6027 201.295 22.0453 201.295 20.296C201.295 18.5467 201.7 16.9893 202.511 15.624C203.343 14.2587 204.452 13.1813 205.839 12.392C207.226 11.6027 208.783 11.208 210.511 11.208C212.218 11.208 213.764 11.6027 215.151 12.392C216.538 13.1813 217.636 14.2587 218.447 15.624C219.279 16.968 219.695 18.5253 219.695 20.296C219.695 22.0453 219.279 23.6027 218.447 24.968C217.615 26.3333 216.506 27.4107 215.119 28.2C213.732 28.9893 212.196 29.384 210.511 29.384ZM210.511 25.544C211.45 25.544 212.271 25.32 212.975 24.872C213.7 24.424 214.266 23.8053 214.671 23.016C215.098 22.2053 215.311 21.2987 215.311 20.296C215.311 19.272 215.098 18.376 214.671 17.608C214.266 16.8187 213.7 16.2 212.975 15.752C212.271 15.2827 211.45 15.048 210.511 15.048C209.551 15.048 208.708 15.2827 207.983 15.752C207.258 16.2 206.682 16.8187 206.255 17.608C205.85 18.376 205.647 19.272 205.647 20.296C205.647 21.2987 205.85 22.2053 206.255 23.016C206.682 23.8053 207.258 24.424 207.983 24.872C208.708 25.32 209.551 25.544 210.511 25.544ZM231.322 36.04C230.021 36.04 228.815 35.8267 227.706 35.4C226.597 34.9733 225.637 34.376 224.826 33.608C224.037 32.8613 223.461 31.976 223.098 30.952L227.002 29.48C227.258 30.2907 227.759 30.9413 228.506 31.432C229.274 31.944 230.213 32.2 231.322 32.2C232.175 32.2 232.922 32.04 233.562 31.72C234.223 31.4 234.735 30.9307 235.098 30.312C235.461 29.7147 235.642 28.9893 235.642 28.136V24.168L236.442 25.128C235.845 26.1733 235.045 26.9627 234.042 27.496C233.039 28.0293 231.898 28.296 230.618 28.296C228.997 28.296 227.546 27.9227 226.266 27.176C224.986 26.4293 223.983 25.4053 223.258 24.104C222.533 22.8027 222.17 21.3413 222.17 19.72C222.17 18.0773 222.533 16.616 223.258 15.336C223.983 14.056 224.975 13.0533 226.234 12.328C227.493 11.5813 228.922 11.208 230.522 11.208C231.823 11.208 232.965 11.4853 233.946 12.04C234.949 12.5733 235.781 13.352 236.442 14.376L235.866 15.432V11.592H239.834V28.136C239.834 29.6507 239.461 31.0053 238.714 32.2C237.989 33.3947 236.986 34.3333 235.706 35.016C234.447 35.6987 232.986 36.04 231.322 36.04ZM231.13 24.424C232.026 24.424 232.805 24.232 233.466 23.848C234.149 23.4427 234.682 22.888 235.066 22.184C235.45 21.48 235.642 20.6693 235.642 19.752C235.642 18.856 235.439 18.056 235.034 17.352C234.65 16.6267 234.117 16.0613 233.434 15.656C232.773 15.2507 232.005 15.048 231.13 15.048C230.255 15.048 229.466 15.2507 228.762 15.656C228.058 16.0613 227.503 16.6267 227.098 17.352C226.714 18.056 226.522 18.856 226.522 19.752C226.522 20.648 226.714 21.448 227.098 22.152C227.503 22.856 228.047 23.4107 228.73 23.816C229.434 24.2213 230.234 24.424 231.13 24.424ZM243.749 29V4.776H247.941V29H243.749ZM260.067 29.384C258.275 29.384 256.707 28.9787 255.363 28.168C254.019 27.3573 252.974 26.2587 252.227 24.872C251.481 23.4853 251.107 21.9493 251.107 20.264C251.107 18.5147 251.481 16.968 252.227 15.624C252.995 14.2587 254.03 13.1813 255.331 12.392C256.654 11.6027 258.126 11.208 259.747 11.208C261.113 11.208 262.307 11.432 263.331 11.88C264.377 12.328 265.262 12.9467 265.987 13.736C266.713 14.5253 267.267 15.432 267.651 16.456C268.035 17.4587 268.227 18.5467 268.227 19.72C268.227 20.0187 268.206 20.328 268.163 20.648C268.142 20.968 268.089 21.2453 268.003 21.48H254.563V18.28H265.635L263.651 19.784C263.843 18.8027 263.79 17.928 263.491 17.16C263.214 16.392 262.745 15.784 262.083 15.336C261.443 14.888 260.665 14.664 259.747 14.664C258.873 14.664 258.094 14.888 257.411 15.336C256.729 15.7627 256.206 16.4027 255.843 17.256C255.502 18.088 255.374 19.1013 255.459 20.296C255.374 21.3627 255.513 22.312 255.875 23.144C256.259 23.9547 256.814 24.584 257.539 25.032C258.286 25.48 259.139 25.704 260.099 25.704C261.059 25.704 261.87 25.5013 262.531 25.096C263.214 24.6907 263.747 24.1467 264.131 23.464L267.523 25.128C267.182 25.96 266.649 26.696 265.923 27.336C265.198 27.976 264.334 28.4773 263.331 28.84C262.35 29.2027 261.262 29.384 260.067 29.384ZM277.445 29V5.16H286.309C287.93 5.16 289.359 5.45867 290.597 6.056C291.855 6.632 292.837 7.48533 293.541 8.616C294.245 9.72533 294.597 11.08 294.597 12.68C294.597 14.3227 294.202 15.72 293.413 16.872C292.645 18.024 291.599 18.8773 290.277 19.432L295.749 29H290.821L284.965 18.536L287.781 20.2H281.797V29H277.445ZM281.797 16.36H286.373C287.162 16.36 287.845 16.2107 288.421 15.912C288.997 15.592 289.445 15.1547 289.765 14.6C290.085 14.0453 290.245 13.4053 290.245 12.68C290.245 11.9333 290.085 11.2933 289.765 10.76C289.445 10.2053 288.997 9.77867 288.421 9.48C287.845 9.16 287.162 9 286.373 9H281.797V16.36ZM303.529 29.384C302.313 29.384 301.257 29.1813 300.361 28.776C299.465 28.3707 298.772 27.7947 298.281 27.048C297.79 26.28 297.545 25.3947 297.545 24.392C297.545 23.432 297.758 22.5787 298.185 21.832C298.612 21.064 299.273 20.424 300.169 19.912C301.065 19.4 302.196 19.0373 303.561 18.824L309.257 17.896V21.096L304.361 21.928C303.529 22.0773 302.91 22.344 302.505 22.728C302.1 23.112 301.897 23.6133 301.897 24.232C301.897 24.8293 302.121 25.3093 302.569 25.672C303.038 26.0133 303.614 26.184 304.297 26.184C305.172 26.184 305.94 26.0027 306.601 25.64C307.284 25.256 307.806 24.7333 308.169 24.072C308.553 23.4107 308.745 22.6853 308.745 21.896V17.416C308.745 16.6693 308.446 16.0507 307.849 15.56C307.273 15.048 306.505 14.792 305.545 14.792C304.649 14.792 303.849 15.0373 303.145 15.528C302.462 15.9973 301.961 16.6267 301.641 17.416L298.217 15.752C298.558 14.8347 299.092 14.0453 299.817 13.384C300.564 12.7013 301.438 12.168 302.441 11.784C303.444 11.4 304.532 11.208 305.705 11.208C307.134 11.208 308.393 11.4747 309.481 12.008C310.569 12.52 311.412 13.2453 312.009 14.184C312.628 15.1013 312.937 16.1787 312.937 17.416V29H308.969V26.024L309.865 25.96C309.417 26.7067 308.884 27.336 308.265 27.848C307.646 28.3387 306.942 28.7227 306.153 29C305.364 29.256 304.489 29.384 303.529 29.384ZM324.435 29.192C322.472 29.192 320.947 28.6587 319.859 27.592C318.792 26.504 318.259 24.9787 318.259 23.016V15.336H315.251V11.592H315.571C316.424 11.592 317.086 11.368 317.555 10.92C318.024 10.472 318.259 9.82133 318.259 8.968V7.624H322.451V11.592H326.451V15.336H322.451V22.792C322.451 23.368 322.547 23.8587 322.739 24.264C322.952 24.6693 323.272 24.9787 323.699 25.192C324.147 25.4053 324.712 25.512 325.395 25.512C325.544 25.512 325.715 25.5013 325.907 25.48C326.12 25.4587 326.323 25.4373 326.515 25.416V29C326.216 29.0427 325.875 29.0853 325.491 29.128C325.107 29.1707 324.755 29.192 324.435 29.192ZM329.718 29V11.592H333.91V29H329.718ZM329.718 9.64V5.16H333.91V9.64H329.718ZM337.78 29V11.592H341.716V15.016L341.396 14.408C341.801 13.3627 342.463 12.5733 343.38 12.04C344.319 11.4853 345.407 11.208 346.644 11.208C347.924 11.208 349.055 11.4853 350.036 12.04C351.039 12.5947 351.817 13.3733 352.372 14.376C352.927 15.3573 353.204 16.4987 353.204 17.8V29H349.012V18.792C349.012 18.024 348.863 17.3627 348.564 16.808C348.265 16.2533 347.849 15.8267 347.316 15.528C346.804 15.208 346.196 15.048 345.492 15.048C344.809 15.048 344.201 15.208 343.668 15.528C343.135 15.8267 342.719 16.2533 342.42 16.808C342.121 17.3627 341.972 18.024 341.972 18.792V29H337.78ZM365.197 36.04C363.896 36.04 362.69 35.8267 361.581 35.4C360.472 34.9733 359.512 34.376 358.701 33.608C357.912 32.8613 357.336 31.976 356.973 30.952L360.877 29.48C361.133 30.2907 361.634 30.9413 362.381 31.432C363.149 31.944 364.088 32.2 365.197 32.2C366.05 32.2 366.797 32.04 367.437 31.72C368.098 31.4 368.61 30.9307 368.973 30.312C369.336 29.7147 369.517 28.9893 369.517 28.136V24.168L370.317 25.128C369.72 26.1733 368.92 26.9627 367.917 27.496C366.914 28.0293 365.773 28.296 364.493 28.296C362.872 28.296 361.421 27.9227 360.141 27.176C358.861 26.4293 357.858 25.4053 357.133 24.104C356.408 22.8027 356.045 21.3413 356.045 19.72C356.045 18.0773 356.408 16.616 357.133 15.336C357.858 14.056 358.85 13.0533 360.109 12.328C361.368 11.5813 362.797 11.208 364.397 11.208C365.698 11.208 366.84 11.4853 367.821 12.04C368.824 12.5733 369.656 13.352 370.317 14.376L369.741 15.432V11.592H373.709V28.136C373.709 29.6507 373.336 31.0053 372.589 32.2C371.864 33.3947 370.861 34.3333 369.581 35.016C368.322 35.6987 366.861 36.04 365.197 36.04ZM365.005 24.424C365.901 24.424 366.68 24.232 367.341 23.848C368.024 23.4427 368.557 22.888 368.941 22.184C369.325 21.48 369.517 20.6693 369.517 19.752C369.517 18.856 369.314 18.056 368.909 17.352C368.525 16.6267 367.992 16.0613 367.309 15.656C366.648 15.2507 365.88 15.048 365.005 15.048C364.13 15.048 363.341 15.2507 362.637 15.656C361.933 16.0613 361.378 16.6267 360.973 17.352C360.589 18.056 360.397 18.856 360.397 19.752C360.397 20.648 360.589 21.448 360.973 22.152C361.378 22.856 361.922 23.4107 362.605 23.816C363.309 24.2213 364.109 24.424 365.005 24.424Z" fill="#6A6A6A"></path><path d="M161.534 152.288C160.398 152.288 159.366 152.072 158.438 151.64C157.51 151.208 156.726 150.632 156.086 149.912C155.446 149.176 154.99 148.368 154.718 147.488L156.446 146.84C156.862 148.056 157.51 148.984 158.39 149.624C159.27 150.248 160.318 150.56 161.534 150.56C162.302 150.56 162.974 150.44 163.55 150.2C164.142 149.944 164.598 149.592 164.918 149.144C165.238 148.696 165.398 148.176 165.398 147.584C165.398 146.704 165.158 146.024 164.678 145.544C164.198 145.064 163.51 144.696 162.614 144.44L159.398 143.48C158.134 143.112 157.158 142.496 156.47 141.632C155.798 140.768 155.462 139.784 155.462 138.68C155.462 137.736 155.694 136.904 156.158 136.184C156.622 135.448 157.254 134.872 158.054 134.456C158.87 134.04 159.79 133.832 160.814 133.832C161.886 133.832 162.846 134.032 163.694 134.432C164.558 134.816 165.286 135.328 165.878 135.968C166.47 136.608 166.894 137.32 167.15 138.104L165.47 138.776C165.086 137.72 164.486 136.92 163.67 136.376C162.87 135.832 161.926 135.56 160.838 135.56C160.15 135.56 159.542 135.68 159.014 135.92C158.502 136.16 158.102 136.504 157.814 136.952C157.526 137.4 157.382 137.928 157.382 138.536C157.382 139.272 157.614 139.936 158.078 140.528C158.542 141.104 159.254 141.536 160.214 141.824L163.046 142.664C164.454 143.08 165.518 143.68 166.238 144.464C166.958 145.248 167.318 146.232 167.318 147.416C167.318 148.376 167.07 149.224 166.574 149.96C166.094 150.68 165.414 151.248 164.534 151.664C163.67 152.08 162.67 152.288 161.534 152.288ZM176.618 152.288C175.418 152.288 174.33 152 173.354 151.424C172.394 150.832 171.634 150.024 171.074 149C170.514 147.976 170.234 146.816 170.234 145.52C170.234 144.224 170.506 143.08 171.05 142.088C171.594 141.08 172.33 140.288 173.258 139.712C174.202 139.136 175.258 138.848 176.426 138.848C177.354 138.848 178.178 139.024 178.898 139.376C179.634 139.712 180.258 140.176 180.77 140.768C181.282 141.344 181.674 142 181.946 142.736C182.218 143.456 182.354 144.2 182.354 144.968C182.354 145.128 182.346 145.312 182.33 145.52C182.314 145.712 182.29 145.912 182.258 146.12H171.386V144.44H181.226L180.362 145.16C180.506 144.28 180.402 143.496 180.05 142.808C179.714 142.104 179.226 141.552 178.586 141.152C177.946 140.736 177.226 140.528 176.426 140.528C175.626 140.528 174.882 140.736 174.194 141.152C173.522 141.568 172.994 142.152 172.61 142.904C172.226 143.64 172.074 144.52 172.154 145.544C172.074 146.568 172.234 147.464 172.634 148.232C173.05 148.984 173.61 149.568 174.314 149.984C175.034 150.4 175.802 150.608 176.618 150.608C177.562 150.608 178.354 150.384 178.994 149.936C179.634 149.488 180.154 148.928 180.554 148.256L182.09 149.072C181.834 149.648 181.442 150.184 180.914 150.68C180.386 151.16 179.754 151.552 179.018 151.856C178.298 152.144 177.498 152.288 176.618 152.288ZM191.384 152.288C190.184 152.288 189.096 152 188.12 151.424C187.16 150.832 186.4 150.024 185.84 149C185.28 147.976 185 146.816 185 145.52C185 144.224 185.272 143.08 185.816 142.088C186.36 141.08 187.096 140.288 188.024 139.712C188.968 139.136 190.024 138.848 191.192 138.848C192.12 138.848 192.944 139.024 193.664 139.376C194.4 139.712 195.024 140.176 195.536 140.768C196.048 141.344 196.44 142 196.712 142.736C196.984 143.456 197.12 144.2 197.12 144.968C197.12 145.128 197.112 145.312 197.096 145.52C197.08 145.712 197.056 145.912 197.024 146.12H186.152V144.44H195.992L195.128 145.16C195.272 144.28 195.168 143.496 194.816 142.808C194.48 142.104 193.992 141.552 193.352 141.152C192.712 140.736 191.992 140.528 191.192 140.528C190.392 140.528 189.648 140.736 188.96 141.152C188.288 141.568 187.76 142.152 187.376 142.904C186.992 143.64 186.84 144.52 186.92 145.544C186.84 146.568 187 147.464 187.4 148.232C187.816 148.984 188.376 149.568 189.08 149.984C189.8 150.4 190.568 150.608 191.384 150.608C192.328 150.608 193.12 150.384 193.76 149.936C194.4 149.488 194.92 148.928 195.32 148.256L196.856 149.072C196.6 149.648 196.208 150.184 195.68 150.68C195.152 151.16 194.52 151.552 193.784 151.856C193.064 152.144 192.264 152.288 191.384 152.288ZM208.091 152.288C207.275 152.288 206.547 152.136 205.907 151.832C205.267 151.512 204.763 151.08 204.395 150.536C204.027 149.992 203.843 149.368 203.843 148.664C203.843 147.992 203.987 147.384 204.275 146.84C204.563 146.28 205.011 145.808 205.619 145.424C206.227 145.04 207.003 144.768 207.947 144.608L212.987 143.768V145.4L208.379 146.168C207.451 146.328 206.779 146.624 206.363 147.056C205.963 147.488 205.763 148 205.763 148.592C205.763 149.168 205.987 149.656 206.435 150.056C206.899 150.456 207.491 150.656 208.211 150.656C209.091 150.656 209.859 150.472 210.515 150.104C211.171 149.72 211.683 149.208 212.051 148.568C212.419 147.928 212.603 147.216 212.603 146.432V143.168C212.603 142.4 212.323 141.776 211.763 141.296C211.203 140.816 210.475 140.576 209.579 140.576C208.795 140.576 208.107 140.776 207.515 141.176C206.923 141.56 206.483 142.064 206.195 142.688L204.563 141.8C204.803 141.256 205.179 140.76 205.691 140.312C206.219 139.864 206.819 139.512 207.491 139.256C208.163 138.984 208.859 138.848 209.579 138.848C210.523 138.848 211.355 139.032 212.075 139.4C212.811 139.768 213.379 140.28 213.779 140.936C214.195 141.576 214.403 142.32 214.403 143.168V152H212.603V149.432L212.867 149.696C212.643 150.176 212.291 150.616 211.811 151.016C211.347 151.4 210.795 151.712 210.155 151.952C209.531 152.176 208.843 152.288 208.091 152.288ZM218.106 152V133.832H219.906V152H218.106ZM223.59 152V133.832H225.39V152H223.59ZM239.177 152.288C237.961 152.288 236.857 152 235.865 151.424C234.873 150.832 234.081 150.032 233.489 149.024C232.913 148 232.625 146.84 232.625 145.544C232.625 144.264 232.913 143.12 233.489 142.112C234.065 141.104 234.841 140.312 235.817 139.736C236.809 139.144 237.929 138.848 239.177 138.848C240.425 138.848 241.537 139.136 242.513 139.712C243.505 140.288 244.281 141.08 244.841 142.088C245.417 143.096 245.705 144.248 245.705 145.544C245.705 146.856 245.409 148.024 244.817 149.048C244.225 150.056 243.433 150.848 242.441 151.424C241.465 152 240.377 152.288 239.177 152.288ZM239.177 150.488C240.041 150.488 240.817 150.272 241.505 149.84C242.209 149.408 242.761 148.816 243.161 148.064C243.577 147.312 243.785 146.472 243.785 145.544C243.785 144.616 243.577 143.784 243.161 143.048C242.761 142.312 242.209 141.728 241.505 141.296C240.817 140.864 240.041 140.648 239.177 140.648C238.313 140.648 237.529 140.864 236.825 141.296C236.137 141.728 235.585 142.312 235.169 143.048C234.753 143.784 234.545 144.616 234.545 145.544C234.545 146.472 234.753 147.312 235.169 148.064C235.585 148.816 236.137 149.408 236.825 149.84C237.529 150.272 238.313 150.488 239.177 150.488ZM253.439 152.288C252.543 152.288 251.727 152.08 250.991 151.664C250.255 151.232 249.671 150.64 249.239 149.888C248.823 149.12 248.615 148.24 248.615 147.248V139.136H250.415V147.032C250.415 147.72 250.551 148.328 250.823 148.856C251.111 149.368 251.503 149.768 251.999 150.056C252.511 150.344 253.095 150.488 253.751 150.488C254.407 150.488 254.991 150.344 255.503 150.056C256.015 149.752 256.415 149.328 256.703 148.784C256.991 148.224 257.135 147.56 257.135 146.792V139.136H258.935V152H257.135V149.504L257.543 149.6C257.239 150.432 256.719 151.088 255.983 151.568C255.247 152.048 254.399 152.288 253.439 152.288ZM262.637 152V139.136H264.437V141.248L264.197 140.936C264.501 140.328 264.957 139.848 265.565 139.496C266.189 139.144 266.941 138.968 267.821 138.968H268.637V140.768H267.509C266.581 140.768 265.837 141.056 265.277 141.632C264.717 142.208 264.437 143.024 264.437 144.08V152H262.637ZM274.825 152V139.136H276.625V141.248L276.385 140.936C276.689 140.328 277.145 139.848 277.753 139.496C278.377 139.144 279.129 138.968 280.009 138.968H280.825V140.768H279.697C278.769 140.768 278.025 141.056 277.465 141.632C276.905 142.208 276.625 143.024 276.625 144.08V152H274.825ZM288.79 152.288C287.59 152.288 286.502 152 285.526 151.424C284.566 150.832 283.806 150.024 283.246 149C282.686 147.976 282.406 146.816 282.406 145.52C282.406 144.224 282.678 143.08 283.222 142.088C283.766 141.08 284.502 140.288 285.43 139.712C286.374 139.136 287.43 138.848 288.598 138.848C289.526 138.848 290.35 139.024 291.07 139.376C291.806 139.712 292.43 140.176 292.942 140.768C293.454 141.344 293.846 142 294.118 142.736C294.39 143.456 294.526 144.2 294.526 144.968C294.526 145.128 294.518 145.312 294.502 145.52C294.486 145.712 294.462 145.912 294.43 146.12H283.558V144.44H293.398L292.534 145.16C292.678 144.28 292.574 143.496 292.222 142.808C291.886 142.104 291.398 141.552 290.758 141.152C290.118 140.736 289.398 140.528 288.598 140.528C287.798 140.528 287.054 140.736 286.366 141.152C285.694 141.568 285.166 142.152 284.782 142.904C284.398 143.64 284.246 144.52 284.326 145.544C284.246 146.568 284.406 147.464 284.806 148.232C285.222 148.984 285.782 149.568 286.486 149.984C287.206 150.4 287.974 150.608 288.79 150.608C289.734 150.608 290.526 150.384 291.166 149.936C291.806 149.488 292.326 148.928 292.726 148.256L294.262 149.072C294.006 149.648 293.614 150.184 293.086 150.68C292.558 151.16 291.926 151.552 291.19 151.856C290.47 152.144 289.67 152.288 288.79 152.288ZM300.897 152L295.881 139.136H297.897L302.121 150.416H301.473L305.721 139.136H307.761L302.697 152H300.897ZM309.864 152V139.136H311.664V152H309.864ZM309.864 136.76V134.12H311.664V136.76H309.864ZM321.204 152.288C320.004 152.288 318.916 152 317.94 151.424C316.98 150.832 316.22 150.024 315.66 149C315.1 147.976 314.82 146.816 314.82 145.52C314.82 144.224 315.092 143.08 315.636 142.088C316.18 141.08 316.916 140.288 317.844 139.712C318.788 139.136 319.844 138.848 321.012 138.848C321.94 138.848 322.764 139.024 323.484 139.376C324.22 139.712 324.844 140.176 325.356 140.768C325.868 141.344 326.26 142 326.532 142.736C326.804 143.456 326.94 144.2 326.94 144.968C326.94 145.128 326.932 145.312 326.916 145.52C326.9 145.712 326.876 145.912 326.844 146.12H315.972V144.44H325.812L324.948 145.16C325.092 144.28 324.988 143.496 324.636 142.808C324.3 142.104 323.812 141.552 323.172 141.152C322.532 140.736 321.812 140.528 321.012 140.528C320.212 140.528 319.468 140.736 318.78 141.152C318.108 141.568 317.58 142.152 317.196 142.904C316.812 143.64 316.66 144.52 316.74 145.544C316.66 146.568 316.82 147.464 317.22 148.232C317.636 148.984 318.196 149.568 318.9 149.984C319.62 150.4 320.388 150.608 321.204 150.608C322.148 150.608 322.94 150.384 323.58 149.936C324.22 149.488 324.74 148.928 325.14 148.256L326.676 149.072C326.42 149.648 326.028 150.184 325.5 150.68C324.972 151.16 324.34 151.552 323.604 151.856C322.884 152.144 322.084 152.288 321.204 152.288ZM332.946 152L328.53 139.136H330.57L334.218 150.392H333.498L336.93 139.136H338.73L342.162 150.392H341.442L345.114 139.136H347.13L342.714 152H340.914L337.578 140.984H338.082L334.746 152H332.946ZM353.703 152.288C352.471 152.288 351.391 151.976 350.463 151.352C349.535 150.728 348.863 149.88 348.447 148.808L349.959 148.088C350.327 148.872 350.839 149.496 351.495 149.96C352.167 150.424 352.903 150.656 353.703 150.656C354.471 150.656 355.119 150.472 355.647 150.104C356.175 149.72 356.439 149.224 356.439 148.616C356.439 148.168 356.311 147.816 356.055 147.56C355.799 147.288 355.503 147.08 355.167 146.936C354.831 146.792 354.535 146.688 354.279 146.624L352.431 146.096C351.247 145.76 350.391 145.288 349.863 144.68C349.335 144.072 349.071 143.368 349.071 142.568C349.071 141.816 349.263 141.16 349.647 140.6C350.031 140.04 350.551 139.608 351.207 139.304C351.863 139 352.591 138.848 353.391 138.848C354.479 138.848 355.463 139.136 356.343 139.712C357.239 140.272 357.871 141.056 358.239 142.064L356.703 142.784C356.383 142.064 355.919 141.504 355.311 141.104C354.719 140.688 354.055 140.48 353.319 140.48C352.599 140.48 352.023 140.664 351.591 141.032C351.159 141.4 350.943 141.864 350.943 142.424C350.943 142.856 351.055 143.2 351.279 143.456C351.503 143.712 351.759 143.904 352.047 144.032C352.351 144.16 352.615 144.256 352.839 144.32L354.975 144.944C356.015 145.248 356.823 145.72 357.399 146.36C357.991 147 358.287 147.752 358.287 148.616C358.287 149.32 358.087 149.952 357.687 150.512C357.303 151.072 356.767 151.512 356.079 151.832C355.391 152.136 354.599 152.288 353.703 152.288Z" fill="#868686"></path></svg>