<svg xmlns="http://www.w3.org/2000/svg" width="289" height="115" viewBox="0 0 289 115" fill="none"><g clip-path="url(#clip0_659_1140)"><path d="M42.8656 13.8652H58.9953V16.8746H52.6531V33.7918H49.1656V16.8746H42.8516V13.8652H42.8656ZM58.3062 19.3637H61.2875V22.148H61.3437C61.4422 21.7543 61.625 21.3746 61.8922 21.009C62.1594 20.6434 62.4828 20.2918 62.8625 19.9965C63.2422 19.6871 63.664 19.448 64.1281 19.2512C64.5922 19.0684 65.0703 18.9699 65.5484 18.9699C65.914 18.9699 66.1812 18.984 66.3219 18.998C66.4625 19.0121 66.6031 19.0402 66.7578 19.0543V22.1199C66.5328 22.0777 66.3078 22.0496 66.0687 22.0215C65.8297 21.9934 65.6047 21.9793 65.3797 21.9793C64.8453 21.9793 64.3391 22.0918 63.8609 22.3027C63.3828 22.5137 62.975 22.8371 62.6234 23.2449C62.2719 23.6668 61.9906 24.173 61.7797 24.7918C61.5687 25.4105 61.4703 26.1137 61.4703 26.9152V33.7777H58.2922V19.3637H58.3062ZM81.3687 33.7918H78.2469V31.7808H78.1906C77.7969 32.5121 77.2203 33.0886 76.4469 33.5246C75.6734 33.9605 74.8859 34.1855 74.0844 34.1855C72.1859 34.1855 70.8078 33.7215 69.964 32.7793C69.1203 31.8371 68.6984 30.4168 68.6984 28.5183V19.3637H71.8765V28.209C71.8765 29.4746 72.1156 30.3746 72.6078 30.8949C73.0859 31.4152 73.775 31.6824 74.6469 31.6824C75.3219 31.6824 75.8703 31.584 76.3203 31.373C76.7703 31.1621 77.1359 30.8949 77.4031 30.5433C77.6844 30.2058 77.8812 29.784 78.0078 29.3058C78.1344 28.8277 78.1906 28.3074 78.1906 27.7449V19.3777H81.3687V33.7918ZM86.7828 29.1652C86.8812 30.0933 87.2328 30.7402 87.8375 31.1199C88.4562 31.4855 89.1875 31.6824 90.0453 31.6824C90.3406 31.6824 90.6781 31.6543 91.0578 31.6121C91.4375 31.5699 91.8031 31.4715 92.1265 31.3449C92.464 31.2183 92.7312 31.0215 92.9562 30.7683C93.1672 30.5152 93.2656 30.1918 93.2515 29.784C93.2375 29.3762 93.0828 29.0387 92.8015 28.7855C92.5203 28.5183 92.1687 28.3215 91.7328 28.1527C91.2969 27.998 90.8047 27.8574 90.2422 27.7449C89.6797 27.6324 89.1172 27.5058 88.5406 27.3793C87.95 27.2527 87.3734 27.084 86.825 26.9012C86.2765 26.7183 85.7843 26.4652 85.3484 26.1418C84.9125 25.8324 84.5609 25.4246 84.3078 24.9324C84.0406 24.4402 83.914 23.8355 83.914 23.1043C83.914 22.3168 84.1109 21.6699 84.4906 21.1355C84.8703 20.6012 85.3625 20.1793 85.939 19.8559C86.5297 19.5324 87.1765 19.3074 87.8937 19.1668C88.6109 19.0402 89.3 18.9699 89.9468 18.9699C90.6922 18.9699 91.4094 19.0543 92.0843 19.209C92.7593 19.3637 93.3781 19.6168 93.9265 19.9824C94.475 20.334 94.925 20.798 95.2906 21.3605C95.6562 21.923 95.8812 22.6121 95.9797 23.4137H92.6609C92.5062 22.6543 92.1687 22.134 91.6203 21.8809C91.0719 21.6137 90.439 21.4871 89.7359 21.4871C89.5109 21.4871 89.2437 21.5012 88.9343 21.5434C88.625 21.5855 88.3437 21.6559 88.0625 21.7543C87.7953 21.8527 87.5703 22.0074 87.3734 22.2043C87.1906 22.4012 87.0922 22.6543 87.0922 22.9777C87.0922 23.3715 87.2328 23.6808 87.5 23.9199C87.7672 24.159 88.1187 24.3558 88.5547 24.5246C88.9906 24.6793 89.4828 24.8199 90.0453 24.9324C90.6078 25.0449 91.1843 25.1715 91.775 25.298C92.3515 25.4246 92.914 25.5933 93.4765 25.7762C94.039 25.959 94.5312 26.2121 94.9672 26.5355C95.4031 26.859 95.7547 27.2527 96.0218 27.7308C96.289 28.209 96.4297 28.8137 96.4297 29.5168C96.4297 30.3746 96.2328 31.0918 95.839 31.6965C95.4453 32.2871 94.939 32.7793 94.3203 33.1449C93.7015 33.5105 92.9984 33.7918 92.239 33.9605C91.4797 34.1293 90.7203 34.2136 89.975 34.2136C89.0609 34.2136 88.2172 34.1152 87.4437 33.9043C86.6703 33.6933 85.9953 33.384 85.4328 32.9761C84.8703 32.5543 84.4203 32.034 84.0969 31.4152C83.7734 30.7965 83.6047 30.0512 83.5765 29.1933H86.7828V29.1652ZM97.2734 19.3637H99.6781V15.0324H102.856V19.3637H105.725V21.7402H102.856V29.4465C102.856 29.784 102.87 30.0652 102.898 30.3183C102.927 30.5574 102.997 30.7683 103.095 30.9371C103.194 31.1058 103.348 31.2324 103.559 31.3168C103.77 31.4012 104.037 31.4433 104.403 31.4433C104.628 31.4433 104.853 31.4433 105.078 31.4293C105.303 31.4152 105.528 31.3871 105.753 31.3308V33.7918C105.402 33.834 105.05 33.8621 104.727 33.9043C104.389 33.9465 104.052 33.9605 103.7 33.9605C102.856 33.9605 102.181 33.8762 101.675 33.7215C101.169 33.5668 100.761 33.3277 100.48 33.0183C100.184 32.709 100.002 32.3293 99.889 31.8652C99.7906 31.4012 99.7203 30.8668 99.7062 30.2762V21.7684H97.3015V19.3637H97.2734ZM107.975 19.3637H110.984V21.3184H111.041C111.491 20.4746 112.109 19.884 112.911 19.5184C113.712 19.1527 114.57 18.9699 115.512 18.9699C116.652 18.9699 117.636 19.1668 118.48 19.5746C119.323 19.9684 120.027 20.5168 120.589 21.2199C121.152 21.923 121.559 22.7387 121.841 23.6668C122.122 24.5949 122.262 25.5933 122.262 26.648C122.262 27.6183 122.136 28.5605 121.883 29.4605C121.63 30.3746 121.25 31.1762 120.744 31.8793C120.237 32.5824 119.591 33.1308 118.803 33.5527C118.016 33.9746 117.102 34.1855 116.033 34.1855C115.569 34.1855 115.105 34.1433 114.641 34.059C114.177 33.9746 113.727 33.834 113.305 33.6512C112.883 33.4683 112.475 33.2293 112.123 32.934C111.758 32.6387 111.462 32.3011 111.209 31.9215H111.153V39.1215H107.975V19.3637ZM119.084 26.5918C119.084 25.9449 119 25.3121 118.831 24.6933C118.662 24.0746 118.409 23.5402 118.072 23.0621C117.734 22.584 117.312 22.2043 116.82 21.923C116.314 21.6418 115.737 21.4871 115.091 21.4871C113.755 21.4871 112.742 21.9512 112.067 22.8793C111.392 23.8074 111.055 25.0449 111.055 26.5918C111.055 27.323 111.139 27.998 111.322 28.6168C111.505 29.2355 111.758 29.7699 112.123 30.2199C112.475 30.6699 112.897 31.0215 113.389 31.2746C113.881 31.5418 114.458 31.6683 115.105 31.6683C115.836 31.6683 116.441 31.5137 116.947 31.2183C117.453 30.923 117.861 30.5293 118.184 30.0652C118.508 29.5871 118.747 29.0527 118.887 28.448C119.014 27.8433 119.084 27.2246 119.084 26.5918ZM124.695 13.8652H127.873V16.8746H124.695V13.8652ZM124.695 19.3637H127.873V33.7918H124.695V19.3637ZM130.714 13.8652H133.892V33.7918H130.714V13.8652ZM143.637 34.1855C142.484 34.1855 141.458 33.9886 140.558 33.609C139.658 33.2293 138.898 32.6949 138.266 32.034C137.647 31.359 137.169 30.5574 136.845 29.6293C136.522 28.7012 136.353 27.6746 136.353 26.5637C136.353 25.4668 136.522 24.4543 136.845 23.5262C137.169 22.598 137.647 21.7965 138.266 21.1215C138.884 20.4465 139.658 19.9262 140.558 19.5465C141.458 19.1668 142.484 18.9699 143.637 18.9699C144.791 18.9699 145.817 19.1668 146.717 19.5465C147.617 19.9262 148.377 20.4605 149.009 21.1215C149.628 21.7965 150.106 22.598 150.43 23.5262C150.753 24.4543 150.922 25.4668 150.922 26.5637C150.922 27.6746 150.753 28.7012 150.43 29.6293C150.106 30.5574 149.628 31.359 149.009 32.034C148.391 32.709 147.617 33.2293 146.717 33.609C145.817 33.9886 144.791 34.1855 143.637 34.1855ZM143.637 31.6683C144.341 31.6683 144.959 31.5137 145.48 31.2183C146 30.923 146.422 30.5293 146.759 30.0512C147.097 29.573 147.336 29.0246 147.505 28.4199C147.659 27.8152 147.744 27.1965 147.744 26.5637C147.744 25.9449 147.659 25.3402 147.505 24.7215C147.35 24.1027 147.097 23.5683 146.759 23.0902C146.422 22.6121 146 22.2324 145.48 21.9371C144.959 21.6418 144.341 21.4871 143.637 21.4871C142.934 21.4871 142.316 21.6418 141.795 21.9371C141.275 22.2324 140.853 22.6262 140.516 23.0902C140.178 23.5683 139.939 24.1027 139.77 24.7215C139.616 25.3402 139.531 25.9449 139.531 26.5637C139.531 27.1965 139.616 27.8152 139.77 28.4199C139.925 29.0246 140.178 29.573 140.516 30.0512C140.853 30.5293 141.275 30.923 141.795 31.2183C142.316 31.5277 142.934 31.6683 143.637 31.6683ZM151.85 19.3637H154.255V15.0324H157.433V19.3637H160.302V21.7402H157.433V29.4465C157.433 29.784 157.447 30.0652 157.475 30.3183C157.503 30.5574 157.573 30.7683 157.672 30.9371C157.77 31.1058 157.925 31.2324 158.136 31.3168C158.347 31.4012 158.614 31.4433 158.98 31.4433C159.205 31.4433 159.43 31.4433 159.655 31.4293C159.88 31.4152 160.105 31.3871 160.33 31.3308V33.7918C159.978 33.834 159.626 33.8621 159.303 33.9043C158.966 33.9465 158.628 33.9605 158.277 33.9605C157.433 33.9605 156.758 33.8762 156.252 33.7215C155.745 33.5668 155.337 33.3277 155.056 33.0183C154.761 32.709 154.578 32.3293 154.466 31.8652C154.367 31.4012 154.297 30.8668 154.283 30.2762V21.7684H151.878V19.3637H151.85Z" fill="#050505"></path><path d="M39.1515 13.8656H24.5828L20.0828 0L15.5687 13.8656L1 13.8515L12.7984 22.4297L8.28437 36.2812L20.0828 27.7172L31.8672 36.2812L27.3672 22.4297L39.1515 13.8656Z" fill="#00B67A"></path><path d="M28.3789 25.5656L27.3664 22.4297L20.082 27.7172L28.3789 25.5656Z" fill="#005128"></path></g><rect width="48" height="48" transform="translate(0.648438 66.2852)" fill="#219653"></rect><path d="M24.6477 99.107L31.9477 97.1523L34.9977 107.084L24.6477 99.107ZM41.4477 86.2693H28.5977L24.6477 73.4844L20.6977 86.2693H7.84766L18.2477 94.1938L14.2977 106.979L24.6977 99.0542L31.0977 94.1938L41.4477 86.2693Z" fill="white"></path><rect width="48" height="48" transform="translate(60.6484 66.2852)" fill="#219653"></rect><path d="M84.6477 99.107L91.9477 97.1523L94.9977 107.084L84.6477 99.107ZM101.448 86.2693H88.5977L84.6477 73.4844L80.6977 86.2693H67.8477L78.2477 94.1938L74.2977 106.979L84.6977 99.0542L91.0977 94.1938L101.448 86.2693Z" fill="white"></path><rect width="48" height="48" transform="translate(120.648 66.2852)" fill="#219653"></rect><path d="M144.648 99.107L151.948 97.1523L154.998 107.084L144.648 99.107ZM161.448 86.2693H148.598L144.648 73.4844L140.698 86.2693H127.848L138.248 94.1938L134.298 106.979L144.698 99.0542L151.098 94.1938L161.448 86.2693Z" fill="white"></path><rect width="48" height="48" transform="translate(180.648 66.2852)" fill="#219653"></rect><path d="M204.648 99.107L211.948 97.1523L214.998 107.084L204.648 99.107ZM221.448 86.2693H208.598L204.648 73.4844L200.698 86.2693H187.848L198.248 94.1938L194.298 106.979L204.698 99.0542L211.098 94.1938L221.448 86.2693Z" fill="white"></path><rect width="48" height="48" transform="translate(240.648 66.2852)" fill="#219653"></rect><path d="M264.648 99.107L271.948 97.1523L274.998 107.084L264.648 99.107ZM281.448 86.2693H268.598L264.648 73.4844L260.698 86.2693H247.848L258.248 94.1938L254.298 106.979L264.698 99.0542L271.098 94.1938L281.448 86.2693Z" fill="white"></path><defs><clipPath id="clip0_659_1140"><rect width="159.3" height="39.1218" fill="white" transform="translate(1)"></rect></clipPath></defs></svg>