<svg xmlns="http://www.w3.org/2000/svg" width="42" height="42" viewBox="0 0 42 42" fill="none">
  <path d="M0 27.122C0 28.0776 0.805539 28.8549 1.79596 28.8549H12.2976L11.9873 28.4037C11.8194 28.1576 11.8449 27.8254 12.0575 27.6101L13.5474 26.0885V24.6079L12.253 23.2853H9.0543C8.68873 23.2853 8.39115 22.9961 8.39115 22.6454V15.868C7.44959 15.5953 6.76947 14.7504 6.76947 13.7579C6.76947 12.5398 7.79814 11.5534 9.05425 11.5534C10.3104 11.5534 11.339 12.5398 11.339 13.7579C11.339 14.7504 10.6525 15.5953 9.71734 15.868V22.0055H12.2359L12.2147 21.9645L14.1785 19.1243C14.3571 18.8679 14.695 18.7675 14.9883 18.8925L16.7184 19.6123L17.9915 18.6403V16.9916C17.9915 16.6388 18.2912 16.3517 18.6546 16.3517H23.3348C23.7003 16.3517 23.9979 16.6409 23.9979 16.9916V18.6403L25.271 19.6123L27.0011 18.8925C27.2944 18.7716 27.6387 18.8659 27.8172 19.1243L29.7811 21.9645L29.7598 22.0055H32.2784V15.868C31.3432 15.5953 30.6567 14.7504 30.6567 13.7579C30.6567 12.5398 31.679 11.5534 32.9415 11.5534C34.204 11.5534 35.2263 12.5398 35.2263 13.7579C35.2263 14.7504 34.5398 15.5953 33.6046 15.868V22.6454C33.6046 22.9982 33.3113 23.2853 32.9414 23.2853H29.7427L28.4484 24.6079V26.0885L29.9383 27.6101C30.1508 27.8254 30.1785 28.1556 30.0084 28.4037L29.6981 28.8549H40.1998C41.1902 28.8549 41.9957 28.0776 41.9957 27.122L42 6.56409H0.000428087L0 27.122Z" fill="black"></path>
  <path d="M0 1.73488V5.28459L41.9936 5.28254V1.73283C41.9936 0.777223 41.188 0 40.1976 0L1.79618 0.00205068C0.805757 0.00205068 0 0.779273 0 1.73488ZM29.3982 2.04453H39.6659C40.0315 2.04453 40.3291 2.32752 40.3291 2.68437C40.3291 3.04121 40.0358 3.32421 39.6659 3.32421H29.3982C29.0327 3.32421 28.7351 3.03506 28.7351 2.68437C28.7351 2.33165 29.0348 2.04453 29.3982 2.04453ZM12.8201 0.894106C13.8424 0.894106 14.6691 1.69794 14.6691 2.67817C14.6691 3.66045 13.836 4.46844 12.8201 4.46844C11.802 4.46844 10.9646 3.6646 10.9646 2.67817C10.9646 1.69175 11.7977 0.894106 12.8201 0.894106ZM8.16758 0.894106C9.18989 0.894106 10.0167 1.69794 10.0167 2.67817C10.0167 3.66045 9.18353 4.46844 8.16758 4.46844C7.14952 4.46844 6.3121 3.6646 6.3121 2.67817C6.3121 1.69175 7.14522 0.894106 8.16758 0.894106ZM3.5151 0.894106C4.53741 0.894106 5.37059 1.69794 5.37059 2.67817C5.37059 3.66045 4.53746 4.46844 3.5151 4.46844C2.49274 4.46844 1.66603 3.6646 1.66603 2.67817C1.66603 1.69175 2.49916 0.894106 3.5151 0.894106Z" fill="black"></path>
  <path d="M3.51543 3.19267C3.80448 3.19267 4.04252 2.9671 4.04252 2.6841C4.04252 2.40111 3.80873 2.17554 3.51543 2.17554C3.22212 2.17554 2.98833 2.40111 2.98833 2.6841C2.98833 2.9671 3.22212 3.19267 3.51543 3.19267Z" fill="black"></path>
  <path d="M8.16802 3.19267C8.45707 3.19267 8.69512 2.9671 8.69512 2.6841C8.69512 2.40111 8.46132 2.17554 8.16802 2.17554C7.87472 2.17554 7.64092 2.40111 7.64092 2.6841C7.64092 2.9671 7.87472 3.19267 8.16802 3.19267Z" fill="black"></path>
  <path d="M12.8184 3.19267C13.1075 3.19267 13.3455 2.9671 13.3455 2.6841C13.3455 2.40111 13.1117 2.17554 12.8184 2.17554C12.5251 2.17554 12.2913 2.40111 12.2913 2.6841C12.2913 2.9671 12.5251 3.19267 12.8184 3.19267Z" fill="black"></path>
  <path d="M14.6972 26.7819L13.3858 28.121L14.338 29.497L14.9799 30.426L16.5633 29.7697C16.7865 29.6754 17.0479 29.7062 17.2371 29.8538L19.0755 31.2504C19.2328 31.3714 19.3263 31.5539 19.3263 31.7548V33.0734H22.6781V31.7548C22.6781 31.56 22.7716 31.3714 22.9289 31.2504L24.7673 29.8538C24.9586 29.7062 25.2179 29.6754 25.4411 29.7697L27.0245 30.426L27.6664 29.497L28.6186 28.121L27.3072 26.7819C27.1882 26.6609 27.1287 26.503 27.1287 26.341V24.3518C27.1287 24.1898 27.1945 24.0319 27.3072 23.911L28.6186 22.5719L27.0288 20.2669L25.4453 20.9293C25.2222 21.0236 24.9608 20.9867 24.7716 20.8452L22.9331 19.4487C22.7758 19.3277 22.6823 19.1452 22.6823 18.9442V17.6256H19.3306V18.9442C19.3306 19.139 19.237 19.3215 19.0798 19.4487L17.2413 20.8452C17.05 20.9928 16.7907 21.0236 16.5676 20.9293L14.9841 20.2669L13.3943 22.5719L14.7057 23.911C14.8247 24.0319 14.8842 24.1837 14.8842 24.3518V26.341C14.8842 26.503 14.8183 26.6609 14.7057 26.7819H14.6972ZM20.9968 21.6327C23.1179 21.6327 24.848 23.3019 24.848 25.3485C24.848 27.395 23.1179 29.0643 20.9968 29.0643C18.8757 29.0643 17.1456 27.3991 17.1456 25.3485C17.1456 23.2957 18.8757 21.6327 20.9968 21.6327Z" fill="black"></path>
  <path d="M20.9968 27.7845C22.3889 27.7845 23.5217 26.6935 23.5217 25.3483C23.5217 24.0051 22.391 22.9121 20.9968 22.9121C19.6047 22.9121 18.4718 24.0031 18.4718 25.3483C18.4718 26.6915 19.6025 27.7845 20.9968 27.7845Z" fill="black"></path>
  <path d="M11.3069 35.29C11.258 35.29 11.2134 35.29 11.1709 35.3003C10.9201 34.7487 10.3484 34.3611 9.68524 34.3611C8.78835 34.3611 8.06355 35.0644 8.06355 35.9258C8.06355 36.787 8.79254 37.4904 9.68524 37.4904C10.3484 37.4904 10.9201 37.1029 11.1709 36.5512C11.2134 36.5615 11.258 36.5615 11.3069 36.5615H14.7288C15.0944 36.5615 15.392 36.2785 15.392 35.9216V31.6316L14.9945 31.7997C14.9074 31.8367 14.8202 31.8531 14.7331 31.8531C14.5971 31.8531 14.4674 31.8121 14.3527 31.7382L14.07 32.1258V35.2818H11.3112L11.3069 35.29Z" fill="black"></path>
  <path d="M32.3146 34.3609C31.6515 34.3609 31.0798 34.7485 30.8289 35.3001C30.7864 35.2899 30.7418 35.2899 30.6929 35.2899H27.9342V31.4161L27.8258 31.574C27.7769 31.6417 27.7216 31.6991 27.6579 31.7422C27.5431 31.816 27.4134 31.857 27.2774 31.857C27.1903 31.857 27.0989 31.8406 27.016 31.8037L26.6143 31.6356V35.9256C26.6143 36.2783 26.914 36.5654 27.2774 36.5654H30.6993C30.7482 36.5654 30.7929 36.5654 30.8354 36.5552C31.0862 37.1068 31.6579 37.4944 32.321 37.4944C33.2179 37.4944 33.9427 36.791 33.9427 35.9297C33.9427 35.0684 33.2137 34.365 32.321 34.365L32.3146 34.3609Z" fill="black"></path>
  <path d="M10.0169 13.7557C10.0169 13.2471 9.58754 12.8308 9.05833 12.8308C8.53123 12.8308 8.09554 13.245 8.09554 13.7557C8.09554 14.2642 8.52487 14.6846 9.05833 14.6846C9.5918 14.6846 10.0169 14.2704 10.0169 13.7557Z" fill="black"></path>
  <path d="M33.9023 13.7557C33.9023 13.2471 33.473 12.8308 32.9395 12.8308C32.406 12.8308 31.981 13.245 31.981 13.7557C31.981 14.2642 32.4103 14.6846 32.9395 14.6846C33.4666 14.6846 33.9023 14.2704 33.9023 13.7557Z" fill="black"></path>
  <path d="M19.3754 40.4353C19.3754 41.3007 20.1044 42 20.9971 42C21.8898 42 22.6188 41.2967 22.6188 40.4353C22.6188 39.7955 22.2171 39.2439 21.6453 39.0019C21.6559 38.9609 21.6559 38.9178 21.6559 38.8707V34.351H20.3276V38.8707C20.3276 38.9178 20.3276 38.9609 20.3382 39.0019C19.7665 39.2439 19.3647 39.7955 19.3647 40.4353H19.3754Z" fill="black"></path>
</svg>
