<svg xmlns="http://www.w3.org/2000/svg" width="42" height="42" viewBox="0 0 42 42" fill="none">
  <path d="M34.6253 21.6991L28.5047 17.7349C26.9398 16.7188 26.0264 14.9471 26.0264 12.9209V12.073H0V42H40.7571V17.7263L40.748 17.7345L34.6274 21.6986L34.6253 21.6991ZM22.49 19.1761H27.6791C28.0159 19.1761 28.2923 19.4861 28.2923 19.8638C28.2923 20.2415 28.0159 20.5515 27.6791 20.5515H22.49C22.1496 20.5515 21.8769 20.2415 21.8769 19.8638C21.8769 19.4861 22.1496 19.1761 22.49 19.1761ZM4.27397 30.574C4.27397 27.6261 5.71448 25.0516 7.84872 23.6926C7.07814 22.7503 6.60773 21.4919 6.60773 20.1123C6.60773 17.187 8.72183 14.8138 11.3301 14.8138C13.9384 14.8138 16.0543 17.187 16.0543 20.1123C16.0543 21.4919 15.5821 22.7503 14.8152 23.6926C16.9476 25.0536 18.3863 27.626 18.3863 30.574V31.9515L4.27402 31.9495V30.572L4.27397 30.574ZM35.8301 36.242H4.92951C4.59272 36.242 4.31633 35.932 4.31633 35.5543C4.31633 35.1765 4.59089 34.8666 4.92951 34.8666L35.8301 34.8686C36.1705 34.8686 36.4432 35.1786 36.4432 35.5563C36.4432 35.9341 36.1705 36.2441 35.8301 36.2441V36.242ZM35.8301 31.0133H22.4919C22.1515 31.0133 21.8787 30.7033 21.8787 30.3256C21.8787 29.9437 22.1515 29.6378 22.4919 29.6378H35.8301C36.1705 29.6378 36.4432 29.9437 36.4432 30.3256C36.4432 30.7033 36.1705 31.0133 35.8301 31.0133ZM35.8301 25.7805H22.4919C22.1515 25.7805 21.8787 25.4746 21.8787 25.0927C21.8787 24.715 22.1515 24.405 22.4919 24.405H35.8301C36.1705 24.405 36.4432 24.715 36.4432 25.0927C36.4432 25.4746 36.1705 25.7805 35.8301 25.7805ZM7.83424 20.1125C7.83424 17.9467 9.39921 16.1873 11.3321 16.1873C13.2632 16.1873 14.8318 17.9446 14.8318 20.1125C14.8318 22.2783 13.265 24.0356 11.3321 24.0356C9.40104 24.0356 7.83424 22.2804 7.83424 20.1125ZM17.1618 30.5739H5.49837C5.49837 27.9442 6.88213 25.6819 8.87908 24.6411C10.3818 25.6675 12.28 25.6675 13.7828 24.6411C15.7797 25.6819 17.1618 27.9463 17.1618 30.5739ZM8.80421 9.74302C10.5522 9.74302 12.0586 8.58315 12.7469 6.91414H15.0477L15.9885 5.78301L17.2826 6.91414L18.3534 5.65983L19.3089 6.91414H20.5993L22.2778 4.87151L20.5993 2.82889H12.7468C12.0568 1.15782 10.5522 0 8.80416 0C6.40634 0 4.46065 2.18016 4.46065 4.87151C4.46065 7.56082 6.40456 9.74302 8.80421 9.74302ZM8.80421 3.23944C9.60773 3.23944 10.2594 3.97026 10.2594 4.87151C10.2594 5.77276 9.60778 6.50358 8.80421 6.50358C8.00064 6.50358 7.34537 5.77276 7.34537 4.87151C7.34537 3.97026 7.99698 3.23944 8.80421 3.23944ZM39.3716 1.03054H29.8772C29.5276 2.2828 28.4824 3.18815 27.2506 3.18815V12.9191C27.2506 14.4567 27.9296 15.7767 29.1176 16.5445L34.6234 20.1104L40.133 16.5445C41.3191 15.7767 41.9982 14.4587 41.9982 12.9191L42 3.19025C40.7663 3.19025 39.7248 2.28285 39.3734 1.03264L39.3716 1.03054ZM38.9726 13.746C38.9726 14.1997 38.6431 14.5692 38.2386 14.5692H31.2666C30.8621 14.5692 30.5308 14.1997 30.5308 13.746V8.26042C30.5308 7.80673 30.8639 7.43721 31.2666 7.43721H31.3984V4.62267C31.3984 3.8549 31.9585 3.22672 32.6449 3.22672H36.8584C37.543 3.22672 38.1031 3.85285 38.1031 4.62267V7.43721H38.2367C38.6412 7.43721 38.9707 7.80673 38.9707 8.26042V13.746H38.9726ZM36.8713 4.60422L36.8786 7.43516H32.6229L32.6303 4.60422H36.8713ZM35.4509 10.0115V11.4773C35.4509 11.9105 35.1379 12.2615 34.7517 12.2615C34.3655 12.2615 34.0525 11.9105 34.0525 11.4773V10.0115C34.0525 9.57836 34.3655 9.22526 34.7517 9.22526C35.1379 9.22526 35.4509 9.57836 35.4509 10.0115Z" fill="black"></path>
</svg>
