<svg xmlns="http://www.w3.org/2000/svg" width="200" height="200" viewBox="0 0 200 200" fill="none"><path d="M100 117.813C109.838 117.813 117.813 109.838 117.813 100C117.813 90.1624 109.838 82.1875 100 82.1875C90.1624 82.1875 82.1875 90.1624 82.1875 100C82.1875 109.838 90.1624 117.813 100 117.813Z" fill="#161616"></path><path d="M167.656 70.625C164.219 69.375 160.625 68.125 156.875 67.0313C157.813 63.2813 158.594 59.5312 159.219 55.9375C162.5 35.3125 158.906 20.7812 148.906 15.1562C145.938 13.4375 142.656 12.6562 138.906 12.6562C127.969 12.6562 114.062 20.7812 100 34.375C85.9375 20.7812 72.0312 12.6562 61.0937 12.6562C57.3437 12.6562 54.0625 13.4375 51.0938 15.1562C41.0938 20.9375 37.5 35.4687 40.7813 55.9375C41.4063 59.5312 42.1875 63.2812 43.125 67.0313C39.375 68.125 35.7813 69.2187 32.3438 70.625C12.8125 78.125 2.1875 88.4375 2.1875 100C2.1875 111.563 12.9688 121.875 32.3438 129.375C35.7813 130.625 39.375 131.875 43.125 132.969C42.1875 136.719 41.4063 140.469 40.7813 144.062C37.5 164.687 41.0938 179.219 51.0938 184.844C54.0625 186.563 57.3437 187.344 61.0937 187.344C72.1875 187.344 86.0937 179.219 100 165.625C114.062 179.219 127.969 187.344 138.906 187.344C142.656 187.344 145.938 186.563 148.906 184.844C158.906 179.063 162.5 164.531 159.219 144.062C158.594 140.469 157.813 136.719 156.875 132.969C160.625 131.875 164.219 130.781 167.656 129.375C187.188 121.875 197.812 111.563 197.812 100C197.812 88.4375 187.188 78.125 167.656 70.625V70.625ZM144.531 22.9687C150.937 26.7187 153.125 38.2812 150.469 54.6875C150 57.9687 149.219 61.4063 148.281 65C140.156 63.125 131.563 61.875 122.5 61.0937C117.187 53.5937 111.719 46.875 106.25 40.7812C117.812 29.375 129.531 21.5625 139.062 21.5625C141.094 21.5625 142.969 22.0312 144.531 22.9687V22.9687ZM127.031 115.625C124.219 120.625 120.937 125.625 117.5 130.625C111.719 131.094 105.937 131.25 100 131.25C93.9062 131.25 88.125 131.094 82.5 130.625C79.0625 125.625 75.9375 120.625 73.125 115.625C70.1562 110.469 67.3437 105.156 64.8437 100C67.3437 94.8438 70.1562 89.5313 73.125 84.375C75.9375 79.375 79.2187 74.375 82.6562 69.375C88.4375 68.9063 94.2187 68.75 100.156 68.75C106.25 68.75 112.031 68.9063 117.656 69.375C121.094 74.375 124.219 79.375 127.031 84.375C130 89.5313 132.812 94.8438 135.312 100C132.656 105.156 130 110.313 127.031 115.625ZM140 110.469C142.344 115.937 144.219 121.25 145.938 126.563C140.625 127.813 135 128.75 129.062 129.531C130.937 126.563 132.969 123.438 134.687 120.156C136.562 116.875 138.281 113.594 140 110.469ZM100 152.813C96.25 148.75 92.6562 144.375 89.2187 139.844C92.8125 140 96.4062 140.156 100 140.156C103.594 140.156 107.188 140 110.781 139.844C107.344 144.375 103.75 148.75 100 152.813ZM70.9375 129.375C65 128.594 59.375 127.656 54.0625 126.406C55.7812 121.25 57.6562 115.781 60 110.312C61.7188 113.438 63.4375 116.719 65.3125 119.844C67.1875 123.281 69.0625 126.25 70.9375 129.375V129.375ZM60 89.5312C57.6562 84.0625 55.7812 78.75 54.0625 73.4375C59.375 72.1875 65 71.25 70.9375 70.4688C69.0625 73.4375 67.0312 76.5625 65.3125 79.8438C63.4375 83.125 61.7188 86.4062 60 89.5312V89.5312ZM100 47.1875C103.75 51.25 107.344 55.625 110.781 60.1562C107.188 60 103.594 59.8437 100 59.8437C96.4062 59.8437 92.8125 60 89.2187 60.1562C92.6562 55.625 96.25 51.25 100 47.1875ZM134.687 80L129.062 70.625C135 71.4062 140.625 72.3437 145.938 73.5938C144.219 78.75 142.344 84.2188 140 89.6875C138.281 86.4063 136.562 83.125 134.687 80ZM49.5313 54.6875C46.875 38.2812 49.0625 26.7187 55.4687 22.9687C57.0312 22.0312 58.9062 21.5625 60.9375 21.5625C70.3125 21.5625 82.0312 29.2187 93.75 40.7812C88.2812 46.7187 82.8125 53.5937 77.5 61.0937C68.4375 61.875 59.8437 63.2812 51.7187 65C50.7812 61.4063 50.1563 57.9687 49.5313 54.6875V54.6875ZM10.9375 100C10.9375 92.6563 19.8438 84.8438 35.4688 79.0625C38.5938 77.8125 42.0313 76.7188 45.4688 75.7813C47.9688 83.5938 51.0937 91.875 54.8437 100.156C51.0937 108.438 47.8125 116.562 45.4688 124.375C23.9063 118.125 10.9375 108.75 10.9375 100ZM55.4687 177.031C49.0625 173.281 46.875 161.719 49.5313 145.313C50 142.031 50.7812 138.594 51.7187 135C59.8437 136.875 68.4375 138.125 77.5 138.906C82.8125 146.406 88.2812 153.125 93.75 159.219C82.1875 170.625 70.4687 178.437 60.9375 178.437C58.9062 178.437 57.0312 177.969 55.4687 177.031ZM150.469 145.313C153.125 161.719 150.937 173.281 144.531 177.031C142.969 177.969 141.094 178.437 139.062 178.437C129.687 178.437 117.969 170.781 106.25 159.219C111.719 153.281 117.187 146.406 122.5 138.906C131.563 138.125 140.156 136.719 148.281 135C149.219 138.594 149.844 142.031 150.469 145.313V145.313ZM164.531 120.938C161.406 122.188 157.969 123.281 154.531 124.219C152.031 116.406 148.906 108.125 145.156 99.8438C148.906 91.5625 152.188 83.4375 154.531 75.625C176.094 81.875 189.062 91.25 189.062 100C189.062 107.344 180 115.156 164.531 120.938Z" fill="#161616"></path></svg>
