<svg xmlns="http://www.w3.org/2000/svg" width="42" height="42" viewBox="0 0 42 42" fill="none">
  <path d="M40.2987 37.2319H1.69471H0C0.210197 39.9102 1.95089 42 4.066 42H37.9274C40.0491 42 41.7898 39.9102 42 37.2319H40.2987Z" fill="black"></path>
  <path d="M20.9967 11.9355C20.996 11.9355 20.996 11.9355 20.9967 11.9355C20.7031 11.9364 20.2505 12.7416 19.9208 14.265H22.0713C21.7416 12.7416 21.289 11.9355 20.9967 11.9355Z" fill="black"></path>
  <path d="M22.5259 25.1181C22.5305 25.1164 22.5357 25.1155 22.541 25.1129C22.6008 25.0891 22.6573 25.0567 22.7157 25.0294C23.6104 24.6208 24.3342 23.9504 24.9116 23.0854H23.0895C22.943 23.8582 22.7551 24.5508 22.5259 25.1181Z" fill="black"></path>
  <path d="M19.702 15.5444C19.6061 16.2712 19.5391 17.1002 19.5175 18.0325H22.474C22.453 17.1002 22.386 16.2712 22.2894 15.5444H19.702Z" fill="black"></path>
  <path d="M24.9123 14.265C24.2843 13.3259 23.4633 12.6103 22.5266 12.235C22.7558 12.8022 22.9437 13.494 23.0895 14.265H24.9123Z" fill="black"></path>
  <path d="M20.9895 25.4167C20.9934 25.4167 20.9967 25.4176 21.0007 25.4176C21.2936 25.4099 21.7436 24.6047 22.0714 23.0873H19.9214C20.2479 24.6004 20.6959 25.4048 20.9895 25.4167Z" fill="black"></path>
  <path d="M19.702 21.8069H22.2888C22.3853 21.0785 22.4523 20.2469 22.4734 19.3112H19.5168C19.5385 20.2469 19.6055 21.0785 19.702 21.8069Z" fill="black"></path>
  <path d="M17.0818 23.0864C17.7091 24.0238 18.5295 24.7395 19.4649 25.1156C19.2363 24.5484 19.0485 23.8567 18.9026 23.0864H17.0818Z" fill="black"></path>
  <path d="M23.46 18.0325H26.161C26.096 17.1412 25.8956 16.3019 25.5889 15.5444H23.2859C23.3818 16.3403 23.4403 17.1813 23.46 18.0325Z" fill="black"></path>
  <path d="M23.2852 21.8069H25.5875C25.8956 21.0478 26.096 20.2059 26.161 19.3112H23.46C23.4403 20.1658 23.3811 21.0094 23.2852 21.8069Z" fill="black"></path>
  <path d="M18.7062 15.5444H16.4032C16.0958 16.301 15.8961 17.1412 15.8311 18.0325H18.5321C18.5512 17.1813 18.6097 16.3403 18.7062 15.5444Z" fill="black"></path>
  <path d="M17.0798 14.2649H18.902C19.0478 13.4938 19.2357 12.8029 19.4649 12.2357C19.2481 12.3679 18.1203 12.7091 17.0798 14.2649Z" fill="black"></path>
  <path d="M36.7976 4.82776H5.20238V32.5235H36.7976V4.82776ZM30.8793 20.582C30.8793 20.8891 30.7085 21.162 30.472 21.2132L28.889 21.5715C28.7247 22.3562 28.4751 23.1239 28.1533 23.883L29.0729 25.5889C29.2108 25.8363 29.1845 26.186 29.0203 26.3992L26.9512 29.0946C26.7804 29.3164 26.5111 29.3505 26.3206 29.1714L25.0003 27.9772C24.4223 28.3867 23.8311 28.7108 23.2202 28.924L22.9443 30.9797C22.8983 31.2867 22.6947 31.5085 22.4582 31.5085H19.5352C19.2987 31.5085 19.0951 31.2867 19.0491 30.9797L18.7732 28.924C18.1558 28.7023 17.558 28.3867 16.9931 27.9772L15.6662 29.1714C15.4692 29.3505 15.2064 29.3164 15.0357 29.0946L12.9731 26.3992C12.8089 26.186 12.7826 25.8363 12.9206 25.5889L13.8402 23.883C13.5183 23.1409 13.2753 22.3647 13.1045 21.5715L11.528 21.2132C11.2915 21.162 11.1207 20.8891 11.1207 20.582V16.7863C11.1207 16.4793 11.2915 16.2148 11.5214 16.1551L13.0979 15.7884C13.2753 14.978 13.5249 14.2018 13.8402 13.4768L12.9206 11.7624C12.7826 11.515 12.8089 11.1653 12.9797 10.9435L15.0357 8.27374C15.2064 8.05197 15.4692 8.01785 15.6662 8.19697L16.9931 9.38259C17.5515 8.97317 18.1426 8.65757 18.7732 8.4358L19.0491 6.37163C19.0951 6.06456 19.2987 5.84279 19.5352 5.84279H22.4582C22.6947 5.84279 22.8983 6.06456 22.9443 6.37163L23.2202 8.4358C23.8377 8.65757 24.4354 8.97317 25.0003 9.38259L26.3206 8.19697C26.5177 8.01785 26.7804 8.05197 26.9446 8.26521L29.0138 10.9435C29.1845 11.1653 29.2108 11.515 29.0729 11.7624L28.1533 13.4768C28.4751 14.2189 28.7182 14.9951 28.889 15.7884L30.472 16.1551C30.7085 16.2148 30.8793 16.4793 30.8793 16.7863V20.582Z" fill="black"></path>
  <path d="M28.0153 16.4877C27.8445 15.5495 27.5555 14.6368 27.1483 13.7839C27.0432 13.5621 27.0497 13.2891 27.1614 13.0844L28.0285 11.4723L26.5439 9.55314L25.3025 10.6705C25.1448 10.8155 24.9281 10.8241 24.7638 10.6876C24.107 10.1587 23.4238 9.8005 22.6881 9.57873C22.4911 9.52755 22.34 9.32284 22.3072 9.06695L22.0444 7.12219H19.949L19.6863 9.06695C19.6534 9.32284 19.5023 9.52755 19.3119 9.57873C18.563 9.8005 17.8667 10.1758 17.2296 10.6876C17.0654 10.8241 16.8552 10.8155 16.691 10.6705L15.4429 9.55314L13.965 11.4723L14.832 13.0844C14.9437 13.2891 14.9503 13.5706 14.8452 13.7839C14.4445 14.6198 14.1555 15.5324 13.9781 16.4877C13.9321 16.7351 13.781 16.9313 13.5906 16.9739L12.106 17.3237V20.0446L13.5906 20.3773C13.7876 20.4199 13.9453 20.6161 13.9847 20.8635C14.4051 23.2893 15.1907 23.6177 14.832 24.2753L13.965 25.8789L15.4429 27.8151L16.691 26.6892C16.8486 26.5442 17.0588 26.5357 17.2296 26.6722C17.8799 27.1925 18.5827 27.5678 19.3119 27.781C19.5023 27.8322 19.6534 28.0369 19.6863 28.2928L19.949 30.229H22.0444L22.3072 28.2928C22.34 28.0369 22.4911 27.8322 22.6881 27.781C23.4107 27.5678 24.0873 27.201 24.7638 26.6722C24.9346 26.5357 25.1448 26.5442 25.3025 26.6892L26.5439 27.8151L28.0285 25.8789L27.1614 24.2753C27.0497 24.0706 27.0432 23.7977 27.1483 23.5759C27.5555 22.6973 27.8445 21.7847 28.0088 20.872C28.0482 20.6161 28.2058 20.4199 28.4029 20.3773L29.894 20.0446V17.3237L28.4094 16.9739C28.2124 16.9313 28.0613 16.7351 28.0153 16.4877ZM21 26.6977C21 26.6977 21 26.6977 20.9934 26.6977C19.8702 26.6977 18.8192 26.3054 17.9062 25.6145C14.9844 23.4155 13.9196 18.5118 15.6597 14.6624C15.6597 14.3093 17.5613 10.6535 21 10.6535C23.2728 10.6535 25.2499 12.257 26.3272 14.6368C26.3272 14.6453 26.3337 14.6539 26.3337 14.6624C26.8658 15.8395 27.1745 17.2128 27.1745 18.6713C27.1745 23.0735 24.3907 26.6977 21 26.6977Z" fill="black"></path>
  <path d="M18.5315 19.312H15.8305C15.8922 20.1556 16.0761 20.9514 16.3553 21.6764C16.3717 21.7199 16.3868 21.7651 16.4039 21.8078H18.7062C18.6103 21.0094 18.5512 20.1658 18.5315 19.312Z" fill="black"></path>
  <path d="M40.5089 35.9525V0.639724C40.5089 0.290008 40.2856 0 40.0163 0H1.97716C1.70785 0 1.48451 0.290008 1.48451 0.639724V35.9525V36.0548H40.5089V35.9525ZM4.21707 4.18806C4.21707 3.83834 4.43384 3.54833 4.70972 3.54833H37.2903C37.5661 3.54833 37.7829 3.83834 37.7829 4.18806V33.1633C37.7829 33.5215 37.5661 33.803 37.2903 33.803H4.70972C4.43384 33.803 4.21707 33.5215 4.21707 33.1633V4.18806Z" fill="black"></path>
</svg>
