<svg xmlns="http://www.w3.org/2000/svg" width="42" height="42" viewBox="0 0 42 42" fill="none">
  <path d="M15.931 27.4616C15.931 27.0331 15.7785 26.6223 15.5068 26.3193C15.2352 26.0164 14.8669 25.8462 14.4828 25.8462C14.0987 25.8462 13.7303 26.0164 13.4587 26.3193C13.1871 26.6223 13.0345 27.0331 13.0345 27.4616V30.6923H15.931V27.4616Z" fill="black"></path>
  <path d="M23.1724 27.4616C23.1724 27.0331 23.0198 26.6223 22.7482 26.3193C22.4766 26.0164 22.1082 25.8462 21.7241 25.8462H20.2759V29.077H21.7241C22.1082 29.077 22.4766 28.9068 22.7482 28.6038C23.0198 28.3009 23.1724 27.89 23.1724 27.4616Z" fill="black"></path>
  <path d="M0 39.5769C0 40.2195 0.228879 40.8358 0.636285 41.2903C1.04369 41.7447 1.59625 42 2.17241 42H39.8276C40.4037 42 40.9563 41.7447 41.3637 41.2903C41.7711 40.8358 42 40.2195 42 39.5769V9.69226H0V39.5769ZM12.3103 21C12.5638 21 12.8172 21 13.0345 21C13.2045 18.7827 14.1142 16.7174 15.5839 15.2124C17.0535 13.7074 18.9759 12.8723 20.971 12.8723C22.9661 12.8723 24.8886 13.7074 26.3582 15.2124C27.8278 16.7174 28.7376 18.7827 28.9076 21C29.1538 21 29.4072 21 29.6317 21C31.7443 21 33.7704 21.936 35.2642 23.6022C36.758 25.2684 37.5972 27.5282 37.5972 29.8846C37.5972 32.2409 36.758 34.5008 35.2642 36.1669C33.7704 37.8331 31.7443 38.7692 29.6317 38.7692H12.3103C10.1978 38.7692 8.1717 37.8331 6.67787 36.1669C5.18405 34.5008 4.34483 32.2409 4.34483 29.8846C4.34483 27.5282 5.18405 25.2684 6.67787 23.6022C8.1717 21.936 10.1978 21 12.3103 21Z" fill="black"></path>
  <path d="M39.8276 0H2.17241C1.59625 0 1.04369 0.255288 0.636285 0.709703C0.228879 1.16412 0 1.78044 0 2.42308V8.07692H42V2.42308C42 1.78044 41.7711 1.16412 41.3637 0.709703C40.9563 0.255288 40.4037 0 39.8276 0ZM3.62069 5.65385C3.33425 5.65385 3.05424 5.55911 2.81607 5.3816C2.5779 5.2041 2.39227 4.95182 2.28266 4.65664C2.17304 4.36147 2.14436 4.03667 2.20024 3.72332C2.25612 3.40996 2.39406 3.12213 2.5966 2.89621C2.79915 2.6703 3.05721 2.51645 3.33814 2.45412C3.61908 2.39179 3.91028 2.42378 4.17492 2.54604C4.43956 2.66831 4.66575 2.87535 4.82489 3.141C4.98403 3.40665 5.06897 3.71897 5.06897 4.03846C5.06897 4.46689 4.91638 4.87777 4.64477 5.18071C4.37317 5.48365 4.0048 5.65385 3.62069 5.65385ZM8.68965 5.65385C8.40321 5.65385 8.1232 5.55911 7.88504 5.3816C7.64687 5.2041 7.46124 4.95182 7.35162 4.65664C7.24201 4.36147 7.21333 4.03667 7.26921 3.72332C7.32509 3.40996 7.46302 3.12213 7.66557 2.89621C7.86811 2.6703 8.12617 2.51645 8.40711 2.45412C8.68805 2.39179 8.97925 2.42378 9.24389 2.54604C9.50852 2.66831 9.73471 2.87535 9.89385 3.141C10.053 3.40665 10.1379 3.71897 10.1379 4.03846C10.1379 4.46689 9.98534 4.87777 9.71374 5.18071C9.44214 5.48365 9.07376 5.65385 8.68965 5.65385ZM13.7586 5.65385C13.4722 5.65385 13.1922 5.55911 12.954 5.3816C12.7158 5.2041 12.5302 4.95182 12.4206 4.65664C12.311 4.36147 12.2823 4.03667 12.3382 3.72332C12.3941 3.40996 12.532 3.12213 12.7345 2.89621C12.9371 2.6703 13.1951 2.51645 13.4761 2.45412C13.757 2.39179 14.0482 2.42378 14.3129 2.54604C14.5775 2.66831 14.8037 2.87535 14.9628 3.141C15.122 3.40665 15.2069 3.71897 15.2069 4.03846C15.2069 4.46689 15.0543 4.87777 14.7827 5.18071C14.5111 5.48365 14.1427 5.65385 13.7586 5.65385ZM32.5862 5.65385H19.5517C19.1676 5.65385 18.7992 5.48365 18.5276 5.18071C18.256 4.87777 18.1034 4.46689 18.1034 4.03846C18.1034 3.61004 18.256 3.19916 18.5276 2.89621C18.7992 2.59327 19.1676 2.42308 19.5517 2.42308H32.5862C32.9703 2.42308 33.3387 2.59327 33.6103 2.89621C33.8819 3.19916 34.0345 3.61004 34.0345 4.03846C34.0345 4.46689 33.8819 4.87777 33.6103 5.18071C33.3387 5.48365 32.9703 5.65385 32.5862 5.65385ZM40.0376 7.035L38.7486 5.59731C38.6281 5.63306 38.504 5.65205 38.3793 5.65385C38.0929 5.65385 37.8129 5.55911 37.5747 5.3816C37.3365 5.2041 37.1509 4.95182 37.0413 4.65664C36.9317 4.36147 36.903 4.03667 36.9589 3.72332C37.0147 3.40996 37.1527 3.12213 37.3552 2.89621C37.5578 2.6703 37.8158 2.51645 38.0968 2.45412C38.3777 2.39179 38.6689 2.42378 38.9335 2.54604C39.1982 2.66831 39.4244 2.87535 39.5835 3.141C39.7426 3.40665 39.8276 3.71897 39.8276 4.03846C39.826 4.17757 39.8089 4.31593 39.7769 4.45039L41.0659 5.88808L40.0376 7.035Z" fill="black"></path>
  <path d="M12.3103 37.1539H29.6897C31.4181 37.1539 33.0758 36.388 34.298 35.0248C35.5203 33.6615 36.2069 31.8126 36.2069 29.8846C36.2069 27.9567 35.5203 26.1078 34.298 24.7445C33.0758 23.3813 31.4181 22.6154 29.6897 22.6154C29.2495 22.615 28.8104 22.6637 28.379 22.7608C28.2727 22.7852 28.1628 22.7826 28.0575 22.7532C27.9522 22.7239 27.8542 22.6685 27.7707 22.5912C27.688 22.5144 27.6217 22.418 27.5766 22.309C27.5315 22.2 27.5088 22.0812 27.51 21.9612C27.51 21.9612 27.51 21.8562 27.51 21.84C27.51 20.8854 27.3414 19.9402 27.0139 19.0582C26.6864 18.1763 26.2063 17.3749 25.6011 16.6999C24.996 16.0249 24.2775 15.4895 23.4868 15.1241C22.6961 14.7588 21.8486 14.5708 20.9928 14.5708C20.1369 14.5708 19.2894 14.7588 18.4987 15.1241C17.708 15.4895 16.9896 16.0249 16.3844 16.6999C15.7792 17.3749 15.2991 18.1763 14.9716 19.0582C14.6441 19.9402 14.4755 20.8854 14.4755 21.84C14.4755 21.84 14.4755 21.9773 14.4755 21.9935C14.4768 22.1135 14.454 22.2323 14.4089 22.3413C14.3638 22.4503 14.2975 22.5467 14.2148 22.6235C14.1313 22.7008 14.0333 22.7562 13.928 22.7855C13.8227 22.8149 13.7129 22.8175 13.6066 22.7931C13.1808 22.6862 12.7466 22.6267 12.3103 22.6154C10.5819 22.6154 8.92418 23.3813 7.70196 24.7445C6.47974 26.1078 5.79311 27.9567 5.79311 29.8846C5.79311 31.8126 6.47974 33.6615 7.70196 35.0248C8.92418 36.388 10.5819 37.1539 12.3103 37.1539ZM29.6897 24.2308V25.8462H28.2414V33.1154H29.6897V34.7308H25.3448V33.1154H26.7931V25.8462H25.3448V24.2308H29.6897ZM21 16.1539C22.3444 16.1539 23.6337 16.7496 24.5843 17.8099C25.5349 18.8702 26.069 20.3082 26.069 21.8077H24.6207C24.6207 20.7367 24.2392 19.7095 23.5602 18.9521C22.8812 18.1947 21.9603 17.7693 21 17.7693V16.1539ZM18.8276 25.0385C18.8276 24.8243 18.9039 24.6188 19.0397 24.4674C19.1755 24.3159 19.3597 24.2308 19.5517 24.2308H21.7241C22.4924 24.2308 23.2291 24.5712 23.7723 25.1771C24.3155 25.783 24.6207 26.6047 24.6207 27.4616C24.6207 28.3184 24.3155 29.1402 23.7723 29.7461C23.2291 30.352 22.4924 30.6923 21.7241 30.6923H20.2759V34.7308H18.8276V25.0385ZM11.5862 27.4616C11.5862 26.6047 11.8914 25.783 12.4346 25.1771C12.9778 24.5712 13.7145 24.2308 14.4828 24.2308C15.251 24.2308 15.9877 24.5712 16.5309 25.1771C17.0741 25.783 17.3793 26.6047 17.3793 27.4616V34.7308H15.931V32.3077H13.0345V34.7308H11.5862V27.4616Z" fill="black"></path>
</svg>
